<svg width="147" height="22" viewBox="0 0 147 22" fill="none" xmlns="http://www.w3.org/2000/svg">
<path d="M13.992 11.92V20.08H7.872V11.632L7.104 11.968V20.08H0.864V5.416H5.424L6.264 6.256C6.584 6 6.88 5.792 7.152 5.632C7.424 5.456 7.696 5.32 7.968 5.224C8.256 5.112 8.552 5.04 8.856 5.008C9.176 4.96 9.544 4.936 9.96 4.936C11.176 4.936 12.12 5.296 12.792 6.016C13.4 5.728 14.064 5.48 14.784 5.272C15.52 5.048 16.28 4.936 17.064 4.936C18.472 4.936 19.512 5.384 20.184 6.28C20.872 7.16 21.216 8.416 21.216 10.048V20.08H14.736V11.632L13.992 11.92ZM22.2038 12.808C22.2038 11.608 22.4038 10.52 22.8038 9.544C23.2038 8.568 23.7798 7.744 24.5318 7.072C25.2998 6.384 26.2358 5.856 27.3398 5.488C28.4438 5.12 29.7078 4.936 31.1318 4.936C32.9878 4.936 34.5078 5.144 35.6918 5.56C36.8918 5.96 37.8278 6.592 38.4998 7.456V14.872C36.9158 14.872 35.3638 14.816 33.8438 14.704C32.3238 14.576 30.8118 14.36 29.3078 14.056V14.896C29.9958 15.072 30.7238 15.216 31.4918 15.328C32.2598 15.424 33.0358 15.504 33.8198 15.568C34.6198 15.616 35.4118 15.656 36.1958 15.688C36.9958 15.704 37.7638 15.712 38.4998 15.712V18.304C37.4278 19.152 36.2198 19.72 34.8758 20.008C33.5478 20.312 32.0278 20.464 30.3158 20.464C29.0998 20.464 27.9878 20.288 26.9798 19.936C25.9878 19.6 25.1398 19.104 24.4358 18.448C23.7318 17.792 23.1798 16.992 22.7798 16.048C22.3958 15.104 22.2038 14.024 22.2038 12.808ZM29.3078 9.688V10.384C29.6118 10.464 29.9558 10.536 30.3398 10.6C30.7398 10.648 31.1398 10.696 31.5398 10.744C31.9558 10.792 32.3558 10.832 32.7398 10.864C33.1238 10.88 33.4678 10.888 33.7718 10.888V10.216C33.4678 10.216 33.1238 10.208 32.7398 10.192C32.3718 10.16 31.9878 10.12 31.5878 10.072C31.2038 10.024 30.8118 9.968 30.4118 9.904C30.0118 9.84 29.6438 9.768 29.3078 9.688ZM39.4772 12.808C39.4772 11.608 39.6772 10.52 40.0772 9.544C40.4772 8.568 41.0532 7.744 41.8052 7.072C42.5732 6.384 43.5092 5.856 44.6132 5.488C45.7172 5.12 46.9812 4.936 48.4052 4.936C50.2612 4.936 51.7812 5.144 52.9652 5.56C54.1652 5.96 55.1012 6.592 55.7732 7.456V14.872C54.1892 14.872 52.6372 14.816 51.1172 14.704C49.5972 14.576 48.0852 14.36 46.5812 14.056V14.896C47.2692 15.072 47.9972 15.216 48.7652 15.328C49.5332 15.424 50.3092 15.504 51.0932 15.568C51.8932 15.616 52.6852 15.656 53.4692 15.688C54.2692 15.704 55.0372 15.712 55.7732 15.712V18.304C54.7012 19.152 53.4932 19.72 52.1492 20.008C50.8212 20.312 49.3012 20.464 47.5892 20.464C46.3732 20.464 45.2612 20.288 44.2532 19.936C43.2612 19.6 42.4132 19.104 41.7092 18.448C41.0052 17.792 40.4532 16.992 40.0532 16.048C39.6692 15.104 39.4772 14.024 39.4772 12.808ZM46.5812 9.688V10.384C46.8852 10.464 47.2292 10.536 47.6132 10.6C48.0132 10.648 48.4132 10.696 48.8132 10.744C49.2292 10.792 49.6292 10.832 50.0132 10.864C50.3972 10.88 50.7412 10.888 51.0452 10.888V10.216C50.7412 10.216 50.3972 10.208 50.0132 10.192C49.6452 10.16 49.2612 10.12 48.8612 10.072C48.4772 10.024 48.0852 9.968 47.6852 9.904C47.2852 9.84 46.9172 9.768 46.5812 9.688ZM68.2946 12.064C67.9906 12.064 67.6466 12.056 67.2626 12.04C66.8946 12.008 66.5106 11.968 66.1106 11.92C65.7266 11.872 65.3346 11.816 64.9346 11.752C64.5346 11.688 64.1666 11.616 63.8306 11.536V12.232C64.1346 12.312 64.4786 12.384 64.8626 12.448C65.2626 12.496 65.6626 12.544 66.0626 12.592C66.4786 12.64 66.8786 12.68 67.2626 12.712C67.6466 12.728 67.9906 12.736 68.2946 12.736V20.032C67.5106 20.256 66.7666 20.392 66.0626 20.44C65.3586 20.504 64.7266 20.536 64.1666 20.536C63.2066 20.536 62.3266 20.4 61.5266 20.128C60.7266 19.872 60.0386 19.496 59.4626 19C58.8866 18.504 58.4386 17.904 58.1186 17.2C57.7986 16.496 57.6386 15.696 57.6386 14.8V11.44H56.6306V5.416H57.4706V1.312H65.6306V5.416H68.2946V12.064ZM79.6823 14.656H72.8663V10.6C73.2983 10.504 73.7143 10.368 74.1143 10.192C74.5143 10.016 74.8743 9.816 75.1943 9.592C75.5143 9.352 75.7703 9.096 75.9622 8.824C76.1543 8.536 76.2503 8.232 76.2503 7.912C76.2503 7.4 76.1063 7 75.8183 6.712C75.5463 6.424 75.2103 6.28 74.8103 6.28C73.8823 6.28 72.9943 6.424 72.1463 6.712C71.3143 6.984 70.4583 7.448 69.5783 8.104V2.752C70.3463 2.224 71.2983 1.792 72.4342 1.456C73.5863 1.12 74.9943 0.951999 76.6583 0.951999C77.7623 0.951999 78.7223 1.096 79.5383 1.384C80.3703 1.656 81.0583 2.048 81.6023 2.56C82.1623 3.072 82.5783 3.688 82.8503 4.408C83.1223 5.128 83.2583 5.92 83.2583 6.784C83.2583 8.08 82.9703 9.272 82.3943 10.36C81.8183 11.432 80.9143 12.304 79.6823 12.976V14.656ZM79.6823 21.016H74.4503C73.9063 21.016 73.4823 20.896 73.1783 20.656C72.8903 20.432 72.7463 20.04 72.7463 19.48V15.232H79.6823V21.016Z" fill="#FF6445"/>
<path d="M91.3209 12.808C91.3209 11.608 91.5209 10.52 91.9209 9.544C92.3209 8.568 92.8969 7.744 93.6489 7.072C94.4169 6.384 95.3529 5.856 96.4569 5.488C97.5609 5.12 98.8249 4.936 100.249 4.936C102.105 4.936 103.625 5.144 104.809 5.56C106.009 5.96 106.945 6.592 107.617 7.456V14.872C106.033 14.872 104.481 14.816 102.961 14.704C101.441 14.576 99.9289 14.36 98.4249 14.056V14.896C99.1129 15.072 99.8409 15.216 100.609 15.328C101.377 15.424 102.153 15.504 102.937 15.568C103.737 15.616 104.529 15.656 105.313 15.688C106.113 15.704 106.881 15.712 107.617 15.712V18.304C106.545 19.152 105.337 19.72 103.993 20.008C102.665 20.312 101.145 20.464 99.4329 20.464C98.2169 20.464 97.1049 20.288 96.0969 19.936C95.1049 19.6 94.2569 19.104 93.5529 18.448C92.8489 17.792 92.2969 16.992 91.8969 16.048C91.5129 15.104 91.3209 14.024 91.3209 12.808ZM98.4249 9.688V10.384C98.7289 10.464 99.0729 10.536 99.4569 10.6C99.8569 10.648 100.257 10.696 100.657 10.744C101.073 10.792 101.473 10.832 101.857 10.864C102.241 10.88 102.585 10.888 102.889 10.888V10.216C102.585 10.216 102.241 10.208 101.857 10.192C101.489 10.16 101.105 10.12 100.705 10.072C100.321 10.024 99.9289 9.968 99.5289 9.904C99.1289 9.84 98.7609 9.768 98.4249 9.688ZM108.594 16.12C108.594 14.872 108.834 13.904 109.314 13.216C109.81 12.528 110.586 12 111.642 11.632C112.042 11.488 112.498 11.36 113.01 11.248C113.522 11.136 114.058 11.04 114.618 10.96C115.178 10.88 115.746 10.816 116.322 10.768C116.898 10.72 117.45 10.696 117.978 10.696V9.928C116.762 9.928 115.442 10.04 114.018 10.264C112.61 10.488 111.218 10.832 109.842 11.296V6.304C110.866 5.84 112.002 5.496 113.25 5.272C114.514 5.048 115.994 4.936 117.69 4.936C118.938 4.936 120.002 5.048 120.882 5.272C121.762 5.496 122.482 5.872 123.042 6.4C123.602 6.912 124.01 7.592 124.266 8.44C124.522 9.288 124.65 10.328 124.65 11.56V20.08H118.65V19.264C118.65 18.32 118.522 17.424 118.266 16.576C118.01 15.712 117.682 15 117.282 14.44L116.562 14.704C116.77 14.944 116.954 15.256 117.114 15.64C117.274 16.008 117.41 16.424 117.522 16.888C117.634 17.336 117.722 17.808 117.786 18.304C117.85 18.784 117.882 19.24 117.882 19.672C117.258 19.896 116.554 20.08 115.77 20.224C114.986 20.368 114.074 20.44 113.034 20.44C111.546 20.44 110.434 20.04 109.698 19.24C108.962 18.456 108.594 17.416 108.594 16.12ZM137.177 12.064C136.873 12.064 136.529 12.056 136.145 12.04C135.777 12.008 135.393 11.968 134.993 11.92C134.609 11.872 134.217 11.816 133.817 11.752C133.417 11.688 133.049 11.616 132.713 11.536V12.232C133.017 12.312 133.361 12.384 133.745 12.448C134.145 12.496 134.545 12.544 134.945 12.592C135.361 12.64 135.761 12.68 136.145 12.712C136.529 12.728 136.873 12.736 137.177 12.736V20.032C136.393 20.256 135.649 20.392 134.945 20.44C134.241 20.504 133.609 20.536 133.049 20.536C132.089 20.536 131.209 20.4 130.409 20.128C129.609 19.872 128.921 19.496 128.345 19C127.769 18.504 127.321 17.904 127.001 17.2C126.681 16.496 126.521 15.696 126.521 14.8V11.44H125.513V5.416H126.353V1.312H134.513V5.416H137.177V12.064ZM145.829 14.176H138.893L138.413 1.312H146.309L145.829 14.176ZM145.829 21.016H140.597C140.053 21.016 139.629 20.896 139.325 20.656C139.037 20.432 138.893 20.04 138.893 19.48V14.752H145.829V21.016Z" fill="#64C221"/>
</svg>
