<?xml version="1.0" encoding="UTF-8"?>
<svg id="Layer_1" xmlns="http://www.w3.org/2000/svg" version="1.1" xmlns:xlink="http://www.w3.org/1999/xlink" viewBox="0 0 288 288">
  <!-- Generator: Adobe Illustrator 29.1.0, SVG Export Plug-In . SVG Version: 2.1.0 Build 142)  -->
  <defs>
    <style>
      .st0 {
        fill: url(#_무제_그라디언트);
      }

      .st1 {
        fill: url(#_무제_그라디언트_2);
      }
    </style>
    <linearGradient id="_무제_그라디언트" data-name="무제 그라디언트" x1="229.6" y1="365.3" x2="69.1" y2="174.1" gradientTransform="translate(0 -142)" gradientUnits="userSpaceOnUse">
      <stop offset="0" stop-color="#ec6800"/>
      <stop offset=".4" stop-color="#ef811b"/>
      <stop offset="1" stop-color="#f5a945"/>
    </linearGradient>
    <linearGradient id="_무제_그라디언트_2" data-name="무제 그라디언트 2" x1="180" y1="257.8" x2="148.6" y2="257.8" gradientTransform="translate(0 -142)" gradientUnits="userSpaceOnUse">
      <stop offset="0" stop-color="#ec6800"/>
      <stop offset="1" stop-color="#f5a945"/>
    </linearGradient>
  </defs>
  <path class="st0" d="M144,0C88.4,0,43.4,45,43.4,100.6s67.8,159.7,92.1,187.4c3.6-49.3,5.7-95.9.8-104.5-10.1-17.8-42.2-36.4-35.9-81.1,5.9-41,30.1-56.6,43.6-56.6s38,16.3,43.6,56.6c6.2,44.7-25.7,63.3-35.9,81.1-4.9,8.6-2.8,55.2.9,104.5,24.4-27.5,92.1-110.9,92.1-187.4S199.4,0,143.9,0h.1Z"/>
  <path class="st1" d="M179.3,104.1c-3.5-25.2-15-40-26-46.8-.2-.1-.6,0-.8.1-.2.2-.1.6,0,.8,8,7.7,16,22.5,18.7,46.4,4,36.9-13.6,54.7-22.8,69.9h.3c10.8-15.3,35.7-32.5,30.4-70.4h.1Z"/>
</svg>