<svg width="23" height="22" viewBox="0 0 23 22" fill="none" xmlns="http://www.w3.org/2000/svg">
<path d="M21.6182 10.5916C21.6182 15.8281 17.0654 20.1831 11.3091 20.1831C5.55278 20.1831 1 15.8281 1 10.5916C1 5.35503 5.55278 1 11.3091 1C17.0654 1 21.6182 5.35503 21.6182 10.5916Z" stroke="#CDCDCD" stroke-width="2"/>
<path d="M9.97727 12.7273V12.6591C9.98485 11.9356 10.0606 11.3598 10.2045 10.9318C10.3485 10.5038 10.553 10.1572 10.8182 9.89205C11.0833 9.62689 11.4015 9.38258 11.7727 9.15909C11.9962 9.02273 12.197 8.86174 12.375 8.67614C12.553 8.48674 12.6932 8.26894 12.7955 8.02273C12.9015 7.77652 12.9545 7.50379 12.9545 7.20455C12.9545 6.83333 12.8674 6.51136 12.6932 6.23864C12.5189 5.96591 12.286 5.75568 11.9943 5.60795C11.7027 5.46023 11.3788 5.38636 11.0227 5.38636C10.7121 5.38636 10.4129 5.45076 10.125 5.57955C9.83712 5.70833 9.59659 5.91098 9.40341 6.1875C9.21023 6.46401 9.09848 6.82576 9.06818 7.27273H7.63636C7.66667 6.62879 7.83333 6.07765 8.13636 5.61932C8.44318 5.16098 8.84659 4.81061 9.34659 4.56818C9.85038 4.32576 10.4091 4.20455 11.0227 4.20455C11.6894 4.20455 12.2689 4.33712 12.7614 4.60227C13.2576 4.86742 13.6402 5.23106 13.9091 5.69318C14.1818 6.1553 14.3182 6.68182 14.3182 7.27273C14.3182 7.68939 14.2538 8.06629 14.125 8.40341C14 8.74053 13.8182 9.04167 13.5795 9.30682C13.3447 9.57197 13.0606 9.80682 12.7273 10.0114C12.3939 10.2197 12.1269 10.4394 11.9261 10.6705C11.7254 10.8977 11.5795 11.1686 11.4886 11.483C11.3977 11.7973 11.3485 12.1894 11.3409 12.6591V12.7273H9.97727ZM10.7045 16.0909C10.4242 16.0909 10.1837 15.9905 9.98295 15.7898C9.7822 15.589 9.68182 15.3485 9.68182 15.0682C9.68182 14.7879 9.7822 14.5473 9.98295 14.3466C10.1837 14.1458 10.4242 14.0455 10.7045 14.0455C10.9848 14.0455 11.2254 14.1458 11.4261 14.3466C11.6269 14.5473 11.7273 14.7879 11.7273 15.0682C11.7273 15.2538 11.6799 15.4242 11.5852 15.5795C11.4943 15.7348 11.3712 15.8598 11.2159 15.9545C11.0644 16.0455 10.8939 16.0909 10.7045 16.0909Z" fill="#CDCDCD"/>
</svg>
