<svg width="20" height="20" viewBox="0 0 20 20" fill="none" xmlns="http://www.w3.org/2000/svg">
<path d="M9.9999 17.5C11.664 17.4998 13.2807 16.9461 14.5956 15.9261C15.9105 14.9062 16.8489 13.4779 17.2629 11.8662C17.677 10.2544 17.5432 8.5507 16.8828 7.02329C16.2223 5.49588 15.0726 4.2315 13.6147 3.42921C12.1567 2.62692 10.4734 2.33229 8.82965 2.5917C7.1859 2.8511 5.6751 3.64982 4.5351 4.8621C3.39511 6.07437 2.69066 7.63136 2.53267 9.28794C2.37467 10.9445 2.77211 12.6066 3.6624 14.0125L2.4999 17.5L5.9874 16.3375C7.18705 17.0989 8.57903 17.5022 9.9999 17.5Z" stroke="white" stroke-width="2" stroke-linecap="round" stroke-linejoin="round"/>
</svg>
