<svg width="18" height="18" viewBox="0 0 18 18" fill="none" xmlns="http://www.w3.org/2000/svg">
<path d="M0.6725 1.45125C0.86875 0.7025 1.55125 0.25 2.26875 0.25C2.71125 0.25 3.11375 0.41625 3.42 0.6875C3.75765 0.404267 4.18428 0.249023 4.625 0.249023C5.06572 0.249023 5.49235 0.404267 5.83 0.6875C6.14684 0.404977 6.55674 0.249208 6.98125 0.25C7.69875 0.25 8.38125 0.7025 8.5775 1.45125C8.765 2.16625 9 3.31875 9 4.625C8.99997 5.35445 8.81755 6.07231 8.46934 6.71327C8.12113 7.35424 7.61818 7.89797 7.00625 8.295C6.6675 8.51625 6.5 8.80125 6.5 9.045V9.54C6.5 9.56833 6.50167 9.59583 6.505 9.6225C6.5475 9.9325 6.70125 11.0837 6.845 12.2775C6.98625 13.4487 7.125 14.7262 7.125 15.25C7.125 15.913 6.86161 16.5489 6.39277 17.0178C5.92393 17.4866 5.28804 17.75 4.625 17.75C3.96196 17.75 3.32607 17.4866 2.85723 17.0178C2.38839 16.5489 2.125 15.913 2.125 15.25C2.125 14.725 2.26375 13.45 2.405 12.2775C2.54875 11.0837 2.7025 9.9325 2.745 9.6225L2.75 9.54V9.045C2.75 8.80125 2.5825 8.51625 2.24375 8.295C1.63182 7.89797 1.12887 7.35424 0.78066 6.71327C0.43245 6.07231 0.250031 5.35445 0.25 4.625C0.25 3.31875 0.485 2.16625 0.6725 1.45125ZM6.5 5.25C6.5 5.41576 6.43415 5.57473 6.31694 5.69194C6.19973 5.80915 6.04076 5.875 5.875 5.875C5.70924 5.875 5.55027 5.80915 5.43306 5.69194C5.31585 5.57473 5.25 5.41576 5.25 5.25V2.125C5.25 1.95924 5.18415 1.80027 5.06694 1.68306C4.94973 1.56585 4.79076 1.5 4.625 1.5C4.45924 1.5 4.30027 1.56585 4.18306 1.68306C4.06585 1.80027 4 1.95924 4 2.125V5.25C4 5.41576 3.93415 5.57473 3.81694 5.69194C3.69973 5.80915 3.54076 5.875 3.375 5.875C3.20924 5.875 3.05027 5.80915 2.93306 5.69194C2.81585 5.57473 2.75 5.41576 2.75 5.25V1.98125C2.75 1.85361 2.6993 1.73121 2.60905 1.64095C2.51879 1.5507 2.39639 1.5 2.26875 1.5C2.06125 1.5 1.91875 1.62375 1.88125 1.76875C1.63491 2.70108 1.50683 3.6607 1.5 4.625C1.49994 5.1463 1.63029 5.65932 1.87918 6.11737C2.12807 6.57541 2.48759 6.96392 2.925 7.2475C3.47375 7.60375 4 8.23 4 9.045V9.54C4 9.62333 3.99458 9.70667 3.98375 9.79C3.94125 10.0975 3.78875 11.2412 3.64625 12.4275C3.50125 13.6337 3.375 14.82 3.375 15.25C3.375 15.5815 3.5067 15.8995 3.74112 16.1339C3.97554 16.3683 4.29348 16.5 4.625 16.5C4.95652 16.5 5.27446 16.3683 5.50888 16.1339C5.7433 15.8995 5.875 15.5815 5.875 15.25C5.875 14.82 5.75 13.6338 5.60375 12.4263C5.46125 11.2413 5.30875 10.0975 5.26625 9.78875C5.25674 9.70657 5.25132 9.62397 5.25 9.54125V9.04625C5.25 8.23125 5.77625 7.605 6.325 7.24875C6.76259 6.96505 7.12222 6.57635 7.37112 6.11807C7.62002 5.65979 7.75027 5.14651 7.75 4.625C7.75 3.46 7.54 2.42 7.36875 1.76875C7.33125 1.625 7.1875 1.5 6.98125 1.5C6.85361 1.5 6.73121 1.5507 6.64095 1.64095C6.5507 1.73121 6.5 1.85361 6.5 1.98125V5.25ZM10.25 5.875C10.25 4.38316 10.8426 2.95242 11.8975 1.89752C12.9524 0.842632 14.3832 0.25 15.875 0.25C16.0408 0.25 16.1997 0.315848 16.3169 0.433058C16.4342 0.550268 16.5 0.70924 16.5 0.875V8.34125L16.5238 8.5625C16.6232 9.49542 16.7186 10.4288 16.81 11.3625C16.9637 12.9325 17.125 14.6925 17.125 15.25C17.125 15.913 16.8616 16.5489 16.3928 17.0178C15.9239 17.4866 15.288 17.75 14.625 17.75C13.962 17.75 13.3261 17.4866 12.8572 17.0178C12.3884 16.5489 12.125 15.913 12.125 15.25C12.125 14.6925 12.2862 12.9325 12.44 11.3625C12.5187 10.5663 12.5975 9.80375 12.6562 9.23875L12.6812 9H11.5C11.1685 9 10.8505 8.8683 10.6161 8.63388C10.3817 8.39946 10.25 8.08152 10.25 7.75V5.875ZM13.9963 8.44125L13.97 8.69375C13.8723 9.62389 13.7773 10.5543 13.685 11.485C13.5263 13.0937 13.375 14.7725 13.375 15.25C13.375 15.5815 13.5067 15.8995 13.7411 16.1339C13.9755 16.3683 14.2935 16.5 14.625 16.5C14.9565 16.5 15.2745 16.3683 15.5089 16.1339C15.7433 15.8995 15.875 15.5815 15.875 15.25C15.875 14.7713 15.7237 13.0937 15.565 11.485C15.4733 10.5542 15.3783 9.62383 15.28 8.69375L15.2537 8.4425L15.25 8.375V1.54375C14.2086 1.69407 13.2562 2.21469 12.5674 3.01019C11.8787 3.80569 11.4997 4.82277 11.5 5.875V7.75H13.375C13.4626 7.75003 13.5493 7.7685 13.6293 7.8042C13.7094 7.8399 13.781 7.89203 13.8396 7.95722C13.8982 8.02241 13.9424 8.09919 13.9694 8.18258C13.9964 8.26597 14.0055 8.3541 13.9963 8.44125Z" fill="white"/>
</svg>
