<svg width="52" height="52" viewBox="0 0 52 52" fill="none" xmlns="http://www.w3.org/2000/svg">
<circle cx="26" cy="26" r="26" fill="#FEE500"/>
<path d="M26.075 12.5483C17.9859 12.5483 11.4624 17.7671 11.4624 24.1027C11.4624 28.2151 14.1762 31.8161 18.2468 33.8723L16.8691 39.0181C16.8431 39.0952 16.8391 39.178 16.8575 39.2572C16.876 39.3365 16.9161 39.4091 16.9735 39.4668C17.0571 39.5406 17.1647 39.5814 17.2761 39.5816C17.3686 39.5742 17.4563 39.5377 17.5266 39.4773L23.4552 35.4797C24.3303 35.6005 25.2125 35.6632 26.0959 35.6675C34.1746 35.6675 40.7086 30.4488 40.7086 24.1027C40.7086 17.7566 34.1538 12.5483 26.075 12.5483Z" fill="#392020"/>
<path d="M16.5763 22.2762H14.9793C14.7814 22.282 14.5859 22.2313 14.4157 22.1301C14.3401 22.0828 14.2751 22.0203 14.2249 21.9466C14.1746 21.873 14.14 21.7897 14.1234 21.7021C14.1184 21.6466 14.1184 21.5908 14.1234 21.5352C14.1185 21.4313 14.1386 21.3276 14.1823 21.2331C14.2259 21.1386 14.2916 21.0561 14.3739 20.9924C14.5559 20.8607 14.7755 20.791 15.0002 20.7941H19.8119C20.0114 20.787 20.2082 20.8417 20.3756 20.9506C20.4529 20.9959 20.5192 21.0578 20.5698 21.1318C20.6203 21.2058 20.6538 21.2901 20.6678 21.3786C20.6729 21.4307 20.6729 21.4831 20.6678 21.5352C20.6727 21.6407 20.6526 21.7457 20.6091 21.8419C20.5655 21.9381 20.4998 22.0225 20.4173 22.0883C20.2398 22.2199 20.0223 22.2863 19.8015 22.2762H18.2567V27.7664C18.263 27.8834 18.2449 28.0003 18.2036 28.1099C18.1622 28.2195 18.0986 28.3194 18.0167 28.4031C17.9381 28.4832 17.8436 28.5459 17.7394 28.5872C17.6351 28.6286 17.5233 28.6476 17.4113 28.6432C17.2152 28.6487 17.0234 28.5861 16.8685 28.4658C16.7211 28.3483 16.621 28.1814 16.5867 27.996C16.5764 27.9198 16.5764 27.8426 16.5867 27.7664L16.5763 22.2762Z" fill="#FEE500"/>
<path d="M21.1286 21.201C21.1745 21.0292 21.2824 20.8805 21.4313 20.7834C21.5901 20.6935 21.7709 20.6501 21.9532 20.6582H22.3498C22.5432 20.6513 22.7348 20.6982 22.903 20.7939C23.0813 20.9138 23.208 21.0963 23.2579 21.3053L25.3454 27.2026C25.3995 27.3564 25.4448 27.5133 25.4811 27.6724C25.4847 27.7384 25.4847 27.8046 25.4811 27.8706C25.4846 27.9723 25.4659 28.0736 25.4263 28.1674C25.3866 28.2611 25.327 28.3451 25.2515 28.4134C25.1784 28.4883 25.0906 28.5474 24.9936 28.5869C24.8966 28.6264 24.7925 28.6455 24.6878 28.643C24.5269 28.659 24.3652 28.6204 24.2288 28.5333C24.0925 28.4462 23.9895 28.3157 23.9363 28.1629L23.498 26.8791H20.7529L20.3145 28.1629C20.2626 28.3187 20.1584 28.4517 20.0194 28.5393C19.8805 28.6268 19.7155 28.6635 19.5525 28.643C19.376 28.6476 19.2032 28.5924 19.062 28.4864C18.9244 28.377 18.8316 28.2212 18.801 28.0481C18.7955 27.9891 18.7955 27.9296 18.801 27.8706C18.7831 27.767 18.7831 27.6612 18.801 27.5576C18.801 27.4427 18.8741 27.3174 18.9159 27.2026L21.1286 21.201ZM22.1724 22.5684L21.1808 25.6996H23.1535L22.1724 22.5684Z" fill="#FEE500"/>
<path d="M25.7201 21.5349C25.7095 21.3007 25.7921 21.0718 25.9498 20.8983C26.0299 20.8174 26.1262 20.7542 26.2322 20.7129C26.3383 20.6715 26.4519 20.6528 26.5656 20.6581C26.7611 20.6558 26.9519 20.7182 27.1083 20.8356C27.2533 20.958 27.3496 21.1283 27.3797 21.3157C27.39 21.3884 27.39 21.4622 27.3797 21.5349V27.0251H30.2501C30.449 27.0225 30.6446 27.0768 30.8137 27.1816C30.8897 27.2285 30.955 27.2908 31.0053 27.3646C31.0557 27.4383 31.09 27.5217 31.1059 27.6096C31.1059 27.6096 31.1059 27.714 31.1059 27.7662C31.1109 27.8701 31.0907 27.9737 31.0471 28.0681C31.0035 28.1626 30.9378 28.2453 30.8554 28.3089C30.6735 28.4407 30.4538 28.5102 30.2292 28.5072H26.7013C26.4766 28.5217 26.2532 28.4632 26.0646 28.3403C25.8958 28.2141 25.7834 28.0267 25.7515 27.8184C25.7438 27.7037 25.7438 27.5886 25.7515 27.4739L25.7201 21.5349Z" fill="#FEE500"/>
<path d="M31.294 21.5352C31.2877 21.3016 31.3697 21.0743 31.5236 20.8985C31.68 20.7564 31.8807 20.6724 32.0918 20.661C32.3028 20.6496 32.5114 20.7114 32.6822 20.8358C32.8303 20.9572 32.9303 21.1274 32.964 21.3159C32.9692 21.3889 32.9692 21.4622 32.964 21.5352V24.0923L35.6047 21.0445C35.7065 20.9405 35.8145 20.843 35.9283 20.7524C36.0355 20.6885 36.1584 20.6559 36.2832 20.6583C36.4656 20.6573 36.644 20.712 36.7946 20.8149C36.8656 20.8627 36.9262 20.9244 36.9728 20.9961C37.0194 21.0678 37.0511 21.1482 37.066 21.2325C37.0702 21.2531 37.0702 21.2745 37.066 21.2951C37.0609 21.3192 37.0609 21.3441 37.066 21.3681C37.0656 21.478 37.0369 21.5859 36.9825 21.6813C36.9271 21.7824 36.8606 21.8768 36.7842 21.963L35.0515 23.8627L37.139 27.0984V27.2027C37.2474 27.3523 37.3319 27.5179 37.3895 27.6934V27.7455C37.4016 27.8664 37.3842 27.9885 37.3387 28.1012C37.2933 28.214 37.2212 28.3139 37.1286 28.3926C36.9545 28.5242 36.7415 28.5941 36.5232 28.591C36.3782 28.597 36.2342 28.5645 36.1057 28.497C35.9667 28.4038 35.8522 28.2785 35.7717 28.1317L33.8303 25.0004L32.9014 25.9712V27.7142C32.9076 27.9477 32.8256 28.175 32.6718 28.3508C32.5893 28.4315 32.4912 28.4944 32.3835 28.5357C32.2758 28.577 32.1607 28.5958 32.0455 28.591C31.8529 28.595 31.6648 28.5323 31.5132 28.4135C31.3657 28.296 31.2657 28.1293 31.2314 27.9439C31.2211 27.8677 31.2211 27.7904 31.2314 27.7142L31.294 21.5352Z" fill="#FEE500"/>
</svg>
