<svg width="40" height="40" viewBox="0 0 40 40" fill="none" xmlns="http://www.w3.org/2000/svg">
<path d="M15.6632 3.73857C15.5126 3.48757 15.2413 3.33398 14.9486 3.33398H6.89223C6.24449 3.33398 5.8444 4.04063 6.17766 4.59606L15.1777 19.5961C15.3283 19.8471 15.5995 20.0007 15.8922 20.0007H23.9486C24.5963 20.0007 24.9964 19.294 24.6632 18.7386L15.6632 3.73857Z" fill="#C52229"/>
<path fill-rule="evenodd" clip-rule="evenodd" d="M14.9479 2.50098H6.8916C5.59611 2.50098 4.79592 3.91426 5.46244 5.02514L14.4624 20.0251C14.7636 20.5271 15.3062 20.8343 15.8916 20.8343H23.9479C25.2434 20.8343 26.0436 19.421 25.3771 18.3102L16.3771 3.31015C16.0759 2.80814 15.5334 2.50098 14.9479 2.50098ZM14.9479 3.33431C15.2407 3.33431 15.5119 3.48789 15.6625 3.7389L24.6625 18.7389C24.9958 19.2943 24.5957 20.001 23.9479 20.001H15.8916C15.5989 20.001 15.3276 19.8474 15.177 19.5964L6.17702 4.59639C5.84376 4.04095 6.24385 3.33431 6.8916 3.33431H14.9479Z" fill="#9B0F15"/>
<path d="M24.3427 3.73857C24.4933 3.48757 24.7646 3.33398 25.0573 3.33398H33.1136C33.7614 3.33398 34.1615 4.04063 33.8282 4.59606L24.8282 19.5961C24.6776 19.8471 24.4063 20.0007 24.1136 20.0007H16.0573C15.4095 20.0007 15.0094 19.294 15.3427 18.7386L24.3427 3.73857Z" fill="#F1333B"/>
<path fill-rule="evenodd" clip-rule="evenodd" d="M25.056 2.50098H33.1123C34.4078 2.50098 35.208 3.91426 34.5415 5.02514L25.5415 20.0251C25.2403 20.5271 24.6977 20.8343 24.1123 20.8343H16.056C14.7605 20.8343 13.9603 19.421 14.6268 18.3102L23.6268 3.31015C23.928 2.80814 24.4705 2.50098 25.056 2.50098ZM25.056 3.33431C24.7632 3.33431 24.492 3.48789 24.3414 3.7389L15.3414 18.7389C15.0081 19.2943 15.4082 20.001 16.056 20.001H24.1123C24.405 20.001 24.6763 19.8474 24.8269 19.5964L33.8269 4.59639C34.1601 4.04095 33.7601 3.33431 33.1123 3.33431H25.056Z" fill="#9B0F15"/>
<path fill-rule="evenodd" clip-rule="evenodd" d="M25.208 3.80665C25.407 3.9222 25.4746 4.1772 25.3591 4.3762L21.6091 10.8345C21.4935 11.0335 21.2385 11.1012 21.0395 10.9856C20.8405 10.8701 20.7729 10.6151 20.8884 10.4161L24.6384 3.95776C24.754 3.75875 25.009 3.6911 25.208 3.80665Z" fill="#FE666D"/>
<path fill-rule="evenodd" clip-rule="evenodd" d="M6.87599 3.80665C6.67699 3.9222 6.60934 4.1772 6.72489 4.3762L10.4749 10.8345C10.5904 11.0335 10.8454 11.1012 11.0444 10.9856C11.2434 10.8701 11.3111 10.6151 11.1955 10.4161L7.44555 3.95776C7.33 3.75875 7.075 3.6911 6.87599 3.80665Z" fill="#DF3840"/>
<path d="M14.7936 4.7006C14.7936 4.99544 14.5604 5.23446 14.2728 5.23446C13.9851 5.23446 13.752 4.99544 13.752 4.7006C13.752 4.40576 13.9851 4.16675 14.2728 4.16675C14.5604 4.16675 14.7936 4.40576 14.7936 4.7006Z" fill="#AA161D"/>
<path d="M12.9637 4.83081C12.9637 5.19756 12.6736 5.49487 12.3158 5.49487C11.958 5.49487 11.668 5.19756 11.668 4.83081C11.668 4.46406 11.958 4.16675 12.3158 4.16675C12.6736 4.16675 12.9637 4.46406 12.9637 4.83081Z" fill="#AA161D"/>
<path d="M14.5848 6.73193C14.5848 7.09869 14.2947 7.396 13.9369 7.396C13.5791 7.396 13.2891 7.09869 13.2891 6.73193C13.2891 6.36518 13.5791 6.06787 13.9369 6.06787C14.2947 6.06787 14.5848 6.36518 14.5848 6.73193Z" fill="#AA161D"/>
<path d="M16.0658 5.8269C16.0658 6.01028 15.9208 6.15894 15.7419 6.15894C15.563 6.15894 15.418 6.01028 15.418 5.8269C15.418 5.64353 15.563 5.49487 15.7419 5.49487C15.9208 5.49487 16.0658 5.64353 16.0658 5.8269Z" fill="#AA161D"/>
<path d="M12.642 6.3999C12.642 6.58328 12.497 6.73193 12.3181 6.73193C12.1392 6.73193 11.9941 6.58328 11.9941 6.3999C11.9941 6.21653 12.1392 6.06787 12.3181 6.06787C12.497 6.06787 12.642 6.21653 12.642 6.3999Z" fill="#AA161D"/>
<path d="M10.8354 4.36865C10.8354 4.55203 10.6903 4.70068 10.5114 4.70068C10.3325 4.70068 10.1875 4.55203 10.1875 4.36865C10.1875 4.18528 10.3325 4.03662 10.5114 4.03662C10.6903 4.03662 10.8354 4.18528 10.8354 4.36865Z" fill="#AA161D"/>
<path d="M15.7416 8.14502C15.7416 8.3284 15.5966 8.47705 15.4177 8.47705C15.2388 8.47705 15.0938 8.3284 15.0938 8.14502C15.0938 7.96164 15.2388 7.81299 15.4177 7.81299C15.5966 7.81299 15.7416 7.96164 15.7416 8.14502Z" fill="#AA161D"/>
<path d="M14.0776 8.47705C14.0776 8.66043 13.9325 8.80908 13.7536 8.80908C13.5747 8.80908 13.4297 8.66043 13.4297 8.47705C13.4297 8.29367 13.5747 8.14502 13.7536 8.14502C13.9325 8.14502 14.0776 8.29367 14.0776 8.47705Z" fill="#AA161D"/>
<path d="M17.3063 7.2723C17.3063 7.57073 17.0703 7.81266 16.7791 7.81266C16.488 7.81266 16.252 7.57073 16.252 7.2723C16.252 6.97386 16.488 6.73193 16.7791 6.73193C17.0703 6.73193 17.3063 6.97386 17.3063 7.2723Z" fill="#AA161D"/>
<path d="M17.9936 8.80908C17.9936 8.99246 17.8485 9.14111 17.6696 9.14111C17.4907 9.14111 17.3457 8.99246 17.3457 8.80908C17.3457 8.62571 17.4907 8.47705 17.6696 8.47705C17.8485 8.47705 17.9936 8.62571 17.9936 8.80908Z" fill="#AA161D"/>
<path d="M31.25 25.417C31.25 31.6302 26.2132 36.667 20 36.667C13.7868 36.667 8.75 31.6302 8.75 25.417C8.75 19.2038 13.7868 14.167 20 14.167C26.2132 14.167 31.25 19.2038 31.25 25.417Z" fill="#DCA16A"/>
<path fill-rule="evenodd" clip-rule="evenodd" d="M32.0807 25.4171C32.0807 32.0905 26.6708 37.5004 19.9974 37.5004C13.324 37.5004 7.91406 32.0905 7.91406 25.4171C7.91406 18.7436 13.324 13.3337 19.9974 13.3337C26.6708 13.3337 32.0807 18.7436 32.0807 25.4171ZM19.9974 36.6671C26.2106 36.6671 31.2474 31.6303 31.2474 25.4171C31.2474 19.2039 26.2106 14.1671 19.9974 14.1671C13.7842 14.1671 8.7474 19.2039 8.7474 25.4171C8.7474 31.6303 13.7842 36.6671 19.9974 36.6671Z" fill="#C38144"/>
<path fill-rule="evenodd" clip-rule="evenodd" d="M9.58073 25.8337C9.35061 25.8337 9.16406 25.6472 9.16406 25.4171C9.16406 19.434 14.0143 14.5837 19.9974 14.5837C20.2275 14.5837 20.4141 14.7703 20.4141 15.0004C20.4141 15.2305 20.2275 15.4171 19.9974 15.4171C14.4745 15.4171 9.9974 19.8942 9.9974 25.4171C9.9974 25.6472 9.81085 25.8337 9.58073 25.8337Z" fill="#F0B57F"/>
<path fill-rule="evenodd" clip-rule="evenodd" d="M30.4193 25C30.6494 25 30.8359 25.1865 30.8359 25.4167C30.8359 31.3998 25.9857 36.25 20.0026 36.25C19.7725 36.25 19.5859 36.0635 19.5859 35.8333C19.5859 35.6032 19.7725 35.4167 20.0026 35.4167C25.5255 35.4167 30.0026 30.9395 30.0026 25.4167C30.0026 25.1865 30.1892 25 30.4193 25Z" fill="#CF945D"/>
<path d="M28.3307 25.4171C28.3307 30.0194 24.5998 33.7504 19.9974 33.7504C15.395 33.7504 11.6641 30.0194 11.6641 25.4171C11.6641 20.8147 15.395 17.0837 19.9974 17.0837C24.5998 17.0837 28.3307 20.8147 28.3307 25.4171Z" fill="#F7BA82"/>
<path fill-rule="evenodd" clip-rule="evenodd" d="M29.1693 25.4167C29.1693 30.4793 25.0652 34.5833 20.0026 34.5833C14.94 34.5833 10.8359 30.4793 10.8359 25.4167C10.8359 20.3541 14.94 16.25 20.0026 16.25C25.0652 16.25 29.1693 20.3541 29.1693 25.4167ZM20.0026 33.75C24.605 33.75 28.3359 30.019 28.3359 25.4167C28.3359 20.8143 24.605 17.0833 20.0026 17.0833C15.4002 17.0833 11.6693 20.8143 11.6693 25.4167C11.6693 30.019 15.4002 33.75 20.0026 33.75Z" fill="#C38144"/>
<path fill-rule="evenodd" clip-rule="evenodd" d="M19.9974 32.5004C23.9094 32.5004 27.0807 29.3291 27.0807 25.4171C27.0807 25.187 27.2673 25.0004 27.4974 25.0004C27.7275 25.0004 27.9141 25.187 27.9141 25.4171C27.9141 29.7893 24.3696 33.3337 19.9974 33.3337C19.7673 33.3337 19.5807 33.1472 19.5807 32.9171C19.5807 32.687 19.7673 32.5004 19.9974 32.5004Z" fill="#E6A66C"/>
<path fill-rule="evenodd" clip-rule="evenodd" d="M20.0026 18.3333C16.0906 18.3333 12.9193 21.5046 12.9193 25.4167C12.9193 25.6468 12.7327 25.8333 12.5026 25.8333C12.2725 25.8333 12.0859 25.6468 12.0859 25.4167C12.0859 21.0444 15.6304 17.5 20.0026 17.5C20.2327 17.5 20.4193 17.6865 20.4193 17.9167C20.4193 18.1468 20.2327 18.3333 20.0026 18.3333Z" fill="#FFD5AE"/>
<mask id="path-25-outside-1_2236_3261" maskUnits="userSpaceOnUse" x="16.082" y="19.5833" width="8" height="10" fill="black">
<rect fill="white" x="16.082" y="19.5833" width="8" height="10"/>
<path d="M19.0107 24.4182H19.7627C20.0036 24.4182 20.2021 24.3775 20.3584 24.2961C20.5146 24.2115 20.6302 24.0943 20.7051 23.9446C20.7832 23.7916 20.8223 23.6142 20.8223 23.4124C20.8223 23.2301 20.7865 23.0689 20.7148 22.929C20.6465 22.7857 20.5407 22.675 20.3975 22.5969C20.2542 22.5155 20.0736 22.4749 19.8555 22.4749C19.6829 22.4749 19.5234 22.509 19.377 22.5774C19.2305 22.6458 19.1133 22.7418 19.0254 22.8655C18.9375 22.9892 18.8936 23.1389 18.8936 23.3147H17.4824C17.4824 22.9241 17.5866 22.5839 17.7949 22.2942C18.0065 22.0045 18.2897 21.7782 18.6445 21.6155C18.9993 21.4527 19.39 21.3713 19.8164 21.3713C20.2982 21.3713 20.7197 21.4495 21.0811 21.6057C21.4424 21.7587 21.724 21.9849 21.9258 22.2844C22.1276 22.5839 22.2285 22.955 22.2285 23.3977C22.2285 23.6223 22.1764 23.8404 22.0723 24.052C21.9681 24.2603 21.8184 24.4491 21.623 24.6184C21.431 24.7844 21.1966 24.9179 20.9199 25.0188C20.6432 25.1165 20.3324 25.1653 19.9873 25.1653H19.0107V24.4182ZM19.0107 25.4875V24.76H19.9873C20.3747 24.76 20.7148 24.804 21.0078 24.8918C21.3008 24.9797 21.5465 25.1067 21.7451 25.2727C21.9437 25.4355 22.0934 25.6292 22.1943 25.8538C22.2952 26.0751 22.3457 26.3209 22.3457 26.5911C22.3457 26.9231 22.2822 27.2193 22.1553 27.4797C22.0283 27.7369 21.8493 27.955 21.6182 28.134C21.3903 28.3131 21.1234 28.4498 20.8174 28.5442C20.5114 28.6353 20.1777 28.6809 19.8164 28.6809C19.5169 28.6809 19.2223 28.6402 18.9326 28.5588C18.6462 28.4742 18.3857 28.3489 18.1514 28.1829C17.9202 28.0136 17.7347 27.802 17.5947 27.5481C17.458 27.2909 17.3896 26.9866 17.3896 26.635H18.8008C18.8008 26.8173 18.8464 26.9801 18.9375 27.1233C19.0286 27.2665 19.154 27.3788 19.3135 27.4602C19.4762 27.5416 19.6569 27.5823 19.8555 27.5823C20.0801 27.5823 20.2721 27.5416 20.4316 27.4602C20.5944 27.3756 20.7181 27.2584 20.8027 27.1086C20.8906 26.9556 20.9346 26.7782 20.9346 26.5764C20.9346 26.316 20.8874 26.1077 20.793 25.9514C20.6986 25.7919 20.5635 25.6747 20.3877 25.5999C20.2119 25.525 20.0036 25.4875 19.7627 25.4875H19.0107Z"/>
</mask>
<path d="M19.0107 24.4182H19.7627C20.0036 24.4182 20.2021 24.3775 20.3584 24.2961C20.5146 24.2115 20.6302 24.0943 20.7051 23.9446C20.7832 23.7916 20.8223 23.6142 20.8223 23.4124C20.8223 23.2301 20.7865 23.0689 20.7148 22.929C20.6465 22.7857 20.5407 22.675 20.3975 22.5969C20.2542 22.5155 20.0736 22.4749 19.8555 22.4749C19.6829 22.4749 19.5234 22.509 19.377 22.5774C19.2305 22.6458 19.1133 22.7418 19.0254 22.8655C18.9375 22.9892 18.8936 23.1389 18.8936 23.3147H17.4824C17.4824 22.9241 17.5866 22.5839 17.7949 22.2942C18.0065 22.0045 18.2897 21.7782 18.6445 21.6155C18.9993 21.4527 19.39 21.3713 19.8164 21.3713C20.2982 21.3713 20.7197 21.4495 21.0811 21.6057C21.4424 21.7587 21.724 21.9849 21.9258 22.2844C22.1276 22.5839 22.2285 22.955 22.2285 23.3977C22.2285 23.6223 22.1764 23.8404 22.0723 24.052C21.9681 24.2603 21.8184 24.4491 21.623 24.6184C21.431 24.7844 21.1966 24.9179 20.9199 25.0188C20.6432 25.1165 20.3324 25.1653 19.9873 25.1653H19.0107V24.4182ZM19.0107 25.4875V24.76H19.9873C20.3747 24.76 20.7148 24.804 21.0078 24.8918C21.3008 24.9797 21.5465 25.1067 21.7451 25.2727C21.9437 25.4355 22.0934 25.6292 22.1943 25.8538C22.2952 26.0751 22.3457 26.3209 22.3457 26.5911C22.3457 26.9231 22.2822 27.2193 22.1553 27.4797C22.0283 27.7369 21.8493 27.955 21.6182 28.134C21.3903 28.3131 21.1234 28.4498 20.8174 28.5442C20.5114 28.6353 20.1777 28.6809 19.8164 28.6809C19.5169 28.6809 19.2223 28.6402 18.9326 28.5588C18.6462 28.4742 18.3857 28.3489 18.1514 28.1829C17.9202 28.0136 17.7347 27.802 17.5947 27.5481C17.458 27.2909 17.3896 26.9866 17.3896 26.635H18.8008C18.8008 26.8173 18.8464 26.9801 18.9375 27.1233C19.0286 27.2665 19.154 27.3788 19.3135 27.4602C19.4762 27.5416 19.6569 27.5823 19.8555 27.5823C20.0801 27.5823 20.2721 27.5416 20.4316 27.4602C20.5944 27.3756 20.7181 27.2584 20.8027 27.1086C20.8906 26.9556 20.9346 26.7782 20.9346 26.5764C20.9346 26.316 20.8874 26.1077 20.793 25.9514C20.6986 25.7919 20.5635 25.6747 20.3877 25.5999C20.2119 25.525 20.0036 25.4875 19.7627 25.4875H19.0107Z" fill="#FFD5AE"/>
<path d="M19.0107 24.4182V23.5849C18.5505 23.5849 18.1774 23.958 18.1774 24.4182H19.0107ZM20.3584 24.2961L20.7434 25.0353L20.7553 25.0289L20.3584 24.2961ZM20.7051 23.9446L19.9629 23.5656L19.9597 23.5719L20.7051 23.9446ZM20.7148 22.929L19.9628 23.2879C19.9661 23.2948 19.9695 23.3017 19.973 23.3085L20.7148 22.929ZM20.3975 22.5969L19.9858 23.3215C19.99 23.3239 19.9942 23.3262 19.9984 23.3285L20.3975 22.5969ZM18.8936 23.3147V24.148C19.3538 24.148 19.7269 23.7749 19.7269 23.3147H18.8936ZM17.4824 23.3147H16.6491C16.6491 23.7749 17.0222 24.148 17.4824 24.148V23.3147ZM17.7949 22.2942L17.1219 21.8027L17.1184 21.8077L17.7949 22.2942ZM21.0811 21.6057L20.7503 22.3706L20.7561 22.3731L21.0811 21.6057ZM21.9258 22.2844L22.6168 21.8187L21.9258 22.2844ZM22.0723 24.052L22.8176 24.4247L22.8199 24.4201L22.0723 24.052ZM21.623 24.6184L22.168 25.2489L22.1688 25.2481L21.623 24.6184ZM20.9199 25.0188L21.1973 25.8047L21.2054 25.8017L20.9199 25.0188ZM19.0107 25.1653H18.1774C18.1774 25.6255 18.5505 25.9986 19.0107 25.9986V25.1653ZM19.0107 25.4875H18.1774C18.1774 25.9478 18.5505 26.3209 19.0107 26.3209V25.4875ZM19.0107 24.76V23.9267C18.5505 23.9267 18.1774 24.2998 18.1774 24.76H19.0107ZM21.7451 25.2727L21.2106 25.9121L21.2168 25.9172L21.7451 25.2727ZM22.1943 25.8538L21.4342 26.1953L21.4361 26.1994L22.1943 25.8538ZM22.1553 27.4797L22.9025 27.8486L22.9043 27.8449L22.1553 27.4797ZM21.6182 28.134L21.1078 27.4752L21.1033 27.4788L21.6182 28.134ZM20.8174 28.5442L21.0553 29.3429L21.063 29.3405L20.8174 28.5442ZM18.9326 28.5588L18.6965 29.3581L18.7073 29.3611L18.9326 28.5588ZM18.1514 28.1829L17.6589 28.8553L17.6697 28.8629L18.1514 28.1829ZM17.5947 27.5481L16.8588 27.9393L16.8649 27.9504L17.5947 27.5481ZM17.3896 26.635V25.8017C16.9294 25.8017 16.5563 26.1748 16.5563 26.635H17.3896ZM18.8008 26.635H19.6341C19.6341 26.1748 19.261 25.8017 18.8008 25.8017V26.635ZM19.3135 27.4602L18.9347 28.2025L18.9408 28.2056L19.3135 27.4602ZM20.4316 27.4602L20.8104 28.2025L20.8161 28.1996L20.4316 27.4602ZM20.8027 27.1086L20.0801 26.6935L20.0773 26.6986L20.8027 27.1086ZM20.793 25.9514L20.0758 26.3759L20.0797 26.3823L20.793 25.9514ZM19.0107 25.2515H19.7627V23.5849H19.0107V25.2515ZM19.7627 25.2515C20.0908 25.2515 20.4327 25.197 20.7433 25.0352L19.9735 23.557C19.9716 23.558 19.9163 23.5849 19.7627 23.5849V25.2515ZM20.7553 25.0289C21.0521 24.8681 21.2943 24.6296 21.4504 24.3173L19.9597 23.5719C19.96 23.5714 19.961 23.5695 19.9629 23.5668C19.9648 23.5641 19.9669 23.5616 19.9689 23.5597C19.9708 23.5577 19.9718 23.557 19.9712 23.5575C19.9705 23.558 19.9675 23.5601 19.9615 23.5634L20.7553 25.0289ZM21.4472 24.3236C21.5949 24.0343 21.6556 23.723 21.6556 23.4124H19.9889C19.9889 23.5054 19.9715 23.5488 19.9629 23.5656L21.4472 24.3236ZM21.6556 23.4124C21.6556 23.1192 21.5974 22.8243 21.4567 22.5494L19.973 23.3085C19.9756 23.3136 19.9889 23.341 19.9889 23.4124H21.6556ZM21.4669 22.57C21.3208 22.2638 21.0891 22.0249 20.7965 21.8653L19.9984 23.3285C19.9996 23.3291 19.9921 23.325 19.9818 23.3143C19.9714 23.3035 19.9653 23.2931 19.9628 23.2879L21.4669 22.57ZM20.8091 21.8724C20.5062 21.7003 20.1726 21.6415 19.8555 21.6415V23.3082C19.9745 23.3082 20.0023 23.3308 19.9858 23.3215L20.8091 21.8724ZM19.8555 21.6415C19.5695 21.6415 19.2887 21.699 19.0245 21.8222L19.7294 23.3325C19.7582 23.3191 19.7964 23.3082 19.8555 23.3082V21.6415ZM19.0245 21.8222C18.7562 21.9475 18.523 22.1338 18.3461 22.3828L19.7047 23.3482C19.7058 23.3467 19.7062 23.3462 19.7074 23.3452C19.7088 23.3441 19.7149 23.3393 19.7294 23.3325L19.0245 21.8222ZM18.3461 22.3828C18.1428 22.669 18.0602 22.9942 18.0602 23.3147H19.7269C19.7269 23.2964 19.7291 23.295 19.7261 23.3052C19.7247 23.3102 19.7222 23.3171 19.7184 23.3251C19.7145 23.333 19.7099 23.3409 19.7047 23.3482L18.3461 22.3828ZM18.8936 22.4814H17.4824V24.148H18.8936V22.4814ZM18.3158 23.3147C18.3158 23.0813 18.3748 22.9152 18.4715 22.7807L17.1184 21.8077C16.7984 22.2526 16.6491 22.7669 16.6491 23.3147H18.3158ZM18.4679 22.7857C18.5882 22.621 18.7549 22.4817 18.992 22.3729L18.2971 20.858C17.8245 21.0748 17.4248 21.388 17.122 21.8027L18.4679 22.7857ZM18.992 22.3729C19.228 22.2646 19.4987 22.2047 19.8164 22.2047V20.538C19.2813 20.538 18.7707 20.6408 18.2971 20.858L18.992 22.3729ZM19.8164 22.2047C20.2092 22.2047 20.514 22.2684 20.7503 22.3706L21.4118 20.8408C20.9255 20.6305 20.3871 20.538 19.8164 20.538V22.2047ZM20.7561 22.3731C20.9822 22.4688 21.131 22.5961 21.2347 22.7501L22.6168 21.8187C22.317 21.3737 21.9026 21.0486 21.406 20.8383L20.7561 22.3731ZM21.2347 22.7501C21.3247 22.8837 21.3952 23.0831 21.3952 23.3977H23.0618C23.0618 22.8269 22.9305 22.2841 22.6168 21.8187L21.2347 22.7501ZM21.3952 23.3977C21.3952 23.4883 21.3753 23.581 21.3246 23.6839L22.8199 24.4201C22.9776 24.0999 23.0618 23.7563 23.0618 23.3977H21.3952ZM21.3269 23.6793C21.2768 23.7795 21.1989 23.8833 21.0773 23.9887L22.1688 25.2481C22.4378 25.015 22.6594 24.7412 22.8176 24.4247L21.3269 23.6793ZM21.0781 23.988C20.9737 24.0782 20.8311 24.1642 20.6344 24.2359L21.2054 25.8017C21.5622 25.6716 21.8882 25.4907 22.168 25.2489L21.0781 23.988ZM20.6426 24.233C20.4691 24.2942 20.2541 24.3319 19.9873 24.3319V25.9986C20.4106 25.9986 20.8174 25.9387 21.1973 25.8046L20.6426 24.233ZM19.9873 24.3319H19.0107V25.9986H19.9873V24.3319ZM19.8441 25.1653V24.4182H18.1774V25.1653H19.8441ZM19.8441 25.4875V24.76H18.1774V25.4875H19.8441ZM19.0107 25.5933H19.9873V23.9267H19.0107V25.5933ZM19.9873 25.5933C20.3141 25.5933 20.5705 25.6307 20.7684 25.69L21.2473 24.0937C20.8592 23.9772 20.4353 23.9267 19.9873 23.9267V25.5933ZM20.7684 25.69C20.9726 25.7513 21.1129 25.8303 21.2106 25.912L22.2796 24.6334C21.9802 24.3831 21.629 24.2082 21.2473 24.0937L20.7684 25.69ZM21.2168 25.9172C21.3201 26.0018 21.3884 26.0933 21.4342 26.1953L22.9545 25.5122C22.7985 25.165 22.5673 24.8691 22.2734 24.6282L21.2168 25.9172ZM21.4361 26.1994C21.4823 26.3008 21.5124 26.4269 21.5124 26.5911H23.179C23.179 26.2149 23.1082 25.8494 22.9526 25.5081L21.4361 26.1994ZM21.5124 26.5911C21.5124 26.8151 21.4701 26.9834 21.4062 27.1146L22.9043 27.8449C23.0943 27.4552 23.179 27.0311 23.179 26.5911H21.5124ZM21.408 27.1108C21.3382 27.2524 21.241 27.3721 21.1078 27.4752L22.1285 28.7928C22.4575 28.5379 22.7185 28.2214 22.9025 27.8486L21.408 27.1108ZM21.1033 27.4788C20.9638 27.5884 20.7903 27.6804 20.5717 27.7479L21.063 29.3405C21.4564 29.2191 21.8168 29.0377 22.133 28.7893L21.1033 27.4788ZM20.5795 27.7455C20.3601 27.8109 20.1076 27.8476 19.8164 27.8476V29.5142C20.2479 29.5142 20.6627 29.4598 21.0553 29.3428L20.5795 27.7455ZM19.8164 27.8476C19.5935 27.8476 19.3747 27.8174 19.158 27.7566L18.7073 29.3611C19.07 29.463 19.4404 29.5142 19.8164 29.5142V27.8476ZM19.1687 27.7597C18.9666 27.6999 18.7897 27.6138 18.633 27.5028L17.6697 28.8629C17.9818 29.0839 18.3257 29.2485 18.6965 29.358L19.1687 27.7597ZM18.6438 27.5106C18.5117 27.4138 18.4067 27.2948 18.3245 27.1458L16.8649 27.9504C17.0627 28.3092 17.3288 28.6134 17.659 28.8552L18.6438 27.5106ZM18.3305 27.1569C18.2698 27.0427 18.223 26.8782 18.223 26.635H16.5563C16.5563 27.0949 16.6462 27.5391 16.8589 27.9393L18.3305 27.1569ZM17.3896 27.4683H18.8008V25.8017H17.3896V27.4683ZM17.9674 26.635C17.9674 26.9636 18.0519 27.2838 18.2344 27.5707L19.6406 26.6759C19.6387 26.6729 19.6381 26.6714 19.6374 26.6691C19.6367 26.6664 19.6341 26.6561 19.6341 26.635H17.9674ZM18.2344 27.5707C18.4099 27.8464 18.6503 28.0574 18.9348 28.2025L19.6922 26.7179C19.6576 26.7003 19.6474 26.6867 19.6406 26.6759L18.2344 27.5707ZM18.9408 28.2056C19.2296 28.3499 19.5395 28.4156 19.8555 28.4156V26.7489C19.7743 26.7489 19.7229 26.7332 19.6862 26.7148L18.9408 28.2056ZM19.8555 28.4156C20.179 28.4156 20.5075 28.357 20.8104 28.2025L20.0529 26.7179C20.0367 26.7262 19.9811 26.7489 19.8555 26.7489V28.4156ZM20.8161 28.1996C21.112 28.0457 21.3588 27.8184 21.5282 27.5187L20.0773 26.6986C20.0754 26.702 20.0744 26.7029 20.0734 26.7039C20.072 26.7052 20.065 26.7116 20.0472 26.7209L20.8161 28.1996ZM21.5253 27.5237C21.6957 27.2272 21.7679 26.9026 21.7679 26.5764H20.1012C20.1012 26.6538 20.0856 26.6841 20.0801 26.6935L21.5253 27.5237ZM21.7679 26.5764C21.7679 26.2255 21.7058 25.8508 21.5062 25.5205L20.0797 26.3823C20.0689 26.3645 20.1012 26.4065 20.1012 26.5764H21.7679ZM21.5101 25.527C21.3224 25.2097 21.048 24.9753 20.7142 24.8332L20.0611 26.3665C20.0683 26.3696 20.0723 26.3719 20.0739 26.3729C20.0755 26.3739 20.0756 26.3741 20.0748 26.3734C20.074 26.3727 20.0734 26.372 20.0731 26.3717C20.0729 26.3715 20.0739 26.3726 20.0758 26.3759L21.5101 25.527ZM20.7142 24.8332C20.4121 24.7045 20.0876 24.6542 19.7627 24.6542V26.3209C19.9196 26.3209 20.0118 26.3455 20.0611 26.3665L20.7142 24.8332ZM19.7627 24.6542H19.0107V26.3209H19.7627V24.6542Z" fill="#C28044" mask="url(#path-25-outside-1_2236_3261)"/>
</svg>
