<svg width="40" height="40" viewBox="0 0 40 40" fill="none" xmlns="http://www.w3.org/2000/svg">
<path d="M15.6632 3.73808C15.5126 3.48708 15.2413 3.3335 14.9486 3.3335H6.89223C6.24449 3.3335 5.84439 4.04014 6.17766 4.59558L15.1777 19.5956C15.3283 19.8466 15.5995 20.0002 15.8922 20.0002H23.9486C24.5963 20.0002 24.9964 19.2935 24.6632 18.7381L15.6632 3.73808Z" fill="#C52229"/>
<path fill-rule="evenodd" clip-rule="evenodd" d="M14.9479 2.50024H6.8916C5.59611 2.50024 4.79592 3.91353 5.46244 5.0244L14.4624 20.0244C14.7636 20.5264 15.3062 20.8336 15.8916 20.8336H23.9479C25.2434 20.8336 26.0436 19.4203 25.3771 18.3094L16.3771 3.30942C16.0759 2.80741 15.5334 2.50024 14.9479 2.50024ZM14.9479 3.33358C15.2407 3.33358 15.5119 3.48716 15.6625 3.73816L24.6625 18.7382C24.9958 19.2936 24.5957 20.0002 23.9479 20.0002H15.8916C15.5989 20.0002 15.3276 19.8467 15.177 19.5957L6.17702 4.59566C5.84376 4.04022 6.24385 3.33358 6.8916 3.33358H14.9479Z" fill="#9B0F15"/>
<path d="M24.3427 3.73808C24.4933 3.48708 24.7646 3.3335 25.0573 3.3335H33.1136C33.7614 3.3335 34.1615 4.04014 33.8282 4.59558L24.8282 19.5956C24.6776 19.8466 24.4063 20.0002 24.1136 20.0002H16.0573C15.4095 20.0002 15.0094 19.2935 15.3427 18.7381L24.3427 3.73808Z" fill="#F1333B"/>
<path fill-rule="evenodd" clip-rule="evenodd" d="M25.056 2.50024H33.1123C34.4078 2.50024 35.208 3.91353 34.5415 5.0244L25.5415 20.0244C25.2403 20.5264 24.6977 20.8336 24.1123 20.8336H16.056C14.7605 20.8336 13.9603 19.4203 14.6268 18.3094L23.6268 3.30942C23.928 2.80741 24.4705 2.50024 25.056 2.50024ZM25.056 3.33358C24.7632 3.33358 24.492 3.48716 24.3414 3.73816L15.3414 18.7382C15.0081 19.2936 15.4082 20.0002 16.056 20.0002H24.1123C24.405 20.0002 24.6763 19.8467 24.8269 19.5957L33.8269 4.59566C34.1601 4.04022 33.7601 3.33358 33.1123 3.33358H25.056Z" fill="#9B0F15"/>
<path fill-rule="evenodd" clip-rule="evenodd" d="M25.208 3.80665C25.407 3.9222 25.4746 4.1772 25.3591 4.3762L21.6091 10.8345C21.4935 11.0335 21.2385 11.1012 21.0395 10.9856C20.8405 10.8701 20.7729 10.6151 20.8884 10.4161L24.6384 3.95776C24.754 3.75875 25.009 3.6911 25.208 3.80665Z" fill="#FE666D"/>
<path fill-rule="evenodd" clip-rule="evenodd" d="M6.87599 3.80665C6.67699 3.9222 6.60934 4.1772 6.72489 4.3762L10.4749 10.8345C10.5904 11.0335 10.8454 11.1012 11.0444 10.9856C11.2434 10.8701 11.3111 10.6151 11.1955 10.4161L7.44555 3.95776C7.33 3.75875 7.075 3.6911 6.87599 3.80665Z" fill="#DF3840"/>
<path d="M14.7936 4.7006C14.7936 4.99544 14.5604 5.23446 14.2728 5.23446C13.9851 5.23446 13.752 4.99544 13.752 4.7006C13.752 4.40576 13.9851 4.16675 14.2728 4.16675C14.5604 4.16675 14.7936 4.40576 14.7936 4.7006Z" fill="#AA161D"/>
<path d="M12.9637 4.83081C12.9637 5.19756 12.6736 5.49487 12.3158 5.49487C11.958 5.49487 11.668 5.19756 11.668 4.83081C11.668 4.46406 11.958 4.16675 12.3158 4.16675C12.6736 4.16675 12.9637 4.46406 12.9637 4.83081Z" fill="#AA161D"/>
<path d="M14.5848 6.73193C14.5848 7.09869 14.2947 7.396 13.9369 7.396C13.5791 7.396 13.2891 7.09869 13.2891 6.73193C13.2891 6.36518 13.5791 6.06787 13.9369 6.06787C14.2947 6.06787 14.5848 6.36518 14.5848 6.73193Z" fill="#AA161D"/>
<path d="M16.0658 5.8269C16.0658 6.01028 15.9208 6.15894 15.7419 6.15894C15.563 6.15894 15.418 6.01028 15.418 5.8269C15.418 5.64353 15.563 5.49487 15.7419 5.49487C15.9208 5.49487 16.0658 5.64353 16.0658 5.8269Z" fill="#AA161D"/>
<path d="M12.642 6.3999C12.642 6.58328 12.497 6.73193 12.3181 6.73193C12.1392 6.73193 11.9941 6.58328 11.9941 6.3999C11.9941 6.21653 12.1392 6.06787 12.3181 6.06787C12.497 6.06787 12.642 6.21653 12.642 6.3999Z" fill="#AA161D"/>
<path d="M10.8354 4.36865C10.8354 4.55203 10.6903 4.70068 10.5114 4.70068C10.3325 4.70068 10.1875 4.55203 10.1875 4.36865C10.1875 4.18528 10.3325 4.03662 10.5114 4.03662C10.6903 4.03662 10.8354 4.18528 10.8354 4.36865Z" fill="#AA161D"/>
<path d="M15.7416 8.14502C15.7416 8.3284 15.5966 8.47705 15.4177 8.47705C15.2388 8.47705 15.0938 8.3284 15.0938 8.14502C15.0938 7.96164 15.2388 7.81299 15.4177 7.81299C15.5966 7.81299 15.7416 7.96164 15.7416 8.14502Z" fill="#AA161D"/>
<path d="M14.0776 8.47705C14.0776 8.66043 13.9325 8.80908 13.7536 8.80908C13.5747 8.80908 13.4297 8.66043 13.4297 8.47705C13.4297 8.29367 13.5747 8.14502 13.7536 8.14502C13.9325 8.14502 14.0776 8.29367 14.0776 8.47705Z" fill="#AA161D"/>
<path d="M17.3063 7.2723C17.3063 7.57073 17.0703 7.81266 16.7791 7.81266C16.488 7.81266 16.252 7.57073 16.252 7.2723C16.252 6.97386 16.488 6.73193 16.7791 6.73193C17.0703 6.73193 17.3063 6.97386 17.3063 7.2723Z" fill="#AA161D"/>
<path d="M17.9936 8.80908C17.9936 8.99246 17.8485 9.14111 17.6696 9.14111C17.4907 9.14111 17.3457 8.99246 17.3457 8.80908C17.3457 8.62571 17.4907 8.47705 17.6696 8.47705C17.8485 8.47705 17.9936 8.62571 17.9936 8.80908Z" fill="#AA161D"/>
<path d="M31.25 25.4165C31.25 31.6297 26.2132 36.6665 20 36.6665C13.7868 36.6665 8.75 31.6297 8.75 25.4165C8.75 19.2033 13.7868 14.1665 20 14.1665C26.2132 14.1665 31.25 19.2033 31.25 25.4165Z" fill="#FFBB0D"/>
<path fill-rule="evenodd" clip-rule="evenodd" d="M32.0827 25.4168C32.0827 32.0903 26.6728 37.5002 19.9993 37.5002C13.3259 37.5002 7.91602 32.0903 7.91602 25.4168C7.91602 18.7434 13.3259 13.3335 19.9993 13.3335C26.6728 13.3335 32.0827 18.7434 32.0827 25.4168ZM19.9993 36.6668C26.2126 36.6668 31.2493 31.63 31.2493 25.4168C31.2493 19.2036 26.2126 14.1668 19.9993 14.1668C13.7861 14.1668 8.74935 19.2036 8.74935 25.4168C8.74935 31.63 13.7861 36.6668 19.9993 36.6668Z" fill="#E89B05"/>
<path fill-rule="evenodd" clip-rule="evenodd" d="M9.58268 25.8335C9.35256 25.8335 9.16602 25.6469 9.16602 25.4168C9.16602 19.4337 14.0163 14.5835 19.9993 14.5835C20.2295 14.5835 20.416 14.77 20.416 15.0002C20.416 15.2303 20.2295 15.4168 19.9993 15.4168C14.4765 15.4168 9.99935 19.894 9.99935 25.4168C9.99935 25.6469 9.8128 25.8335 9.58268 25.8335Z" fill="#E8AA0A"/>
<path fill-rule="evenodd" clip-rule="evenodd" d="M30.4154 25.0005C30.6455 25.0005 30.832 25.187 30.832 25.4172C30.832 31.4002 25.9818 36.2505 19.9987 36.2505C19.7686 36.2505 19.582 36.0639 19.582 35.8338C19.582 35.6037 19.7686 35.4172 19.9987 35.4172C25.5215 35.4172 29.9987 30.94 29.9987 25.4172C29.9987 25.187 30.1852 25.0005 30.4154 25.0005Z" fill="#E8AA0A"/>
<path d="M28.3327 25.4168C28.3327 30.0192 24.6017 33.7502 19.9993 33.7502C15.397 33.7502 11.666 30.0192 11.666 25.4168C11.666 20.8145 15.397 17.0835 19.9993 17.0835C24.6017 17.0835 28.3327 20.8145 28.3327 25.4168Z" fill="#FFDD28"/>
<path fill-rule="evenodd" clip-rule="evenodd" d="M29.1654 25.4172C29.1654 30.4798 25.0613 34.5838 19.9987 34.5838C14.9361 34.5838 10.832 30.4798 10.832 25.4172C10.832 20.3545 14.9361 16.2505 19.9987 16.2505C25.0613 16.2505 29.1654 20.3545 29.1654 25.4172ZM19.9987 33.7505C24.6011 33.7505 28.332 30.0195 28.332 25.4172C28.332 20.8148 24.6011 17.0838 19.9987 17.0838C15.3963 17.0838 11.6654 20.8148 11.6654 25.4172C11.6654 30.0195 15.3963 33.7505 19.9987 33.7505Z" fill="#E89B05"/>
<path fill-rule="evenodd" clip-rule="evenodd" d="M19.9993 32.5002C23.9114 32.5002 27.0827 29.3288 27.0827 25.4168C27.0827 25.1867 27.2692 25.0002 27.4993 25.0002C27.7295 25.0002 27.916 25.1867 27.916 25.4168C27.916 29.7891 24.3716 33.3335 19.9993 33.3335C19.7692 33.3335 19.5827 33.1469 19.5827 32.9168C19.5827 32.6867 19.7692 32.5002 19.9993 32.5002Z" fill="#ECC704"/>
<path fill-rule="evenodd" clip-rule="evenodd" d="M19.9987 18.3338C16.0867 18.3338 12.9154 21.5051 12.9154 25.4172C12.9154 25.6473 12.7288 25.8338 12.4987 25.8338C12.2686 25.8338 12.082 25.6473 12.082 25.4172C12.082 21.0449 15.6264 17.5005 19.9987 17.5005C20.2288 17.5005 20.4154 17.687 20.4154 17.9172C20.4154 18.1473 20.2288 18.3338 19.9987 18.3338Z" fill="#FFEF9C"/>
<path d="M20.9941 28.75H19.583V23.3105L17.8984 23.833V22.6855L20.8428 21.6309H20.9941V28.75Z" fill="#FFEF9C"/>
<path fill-rule="evenodd" clip-rule="evenodd" d="M21.8268 28.7501C21.8268 29.2103 21.4537 29.5834 20.9935 29.5834H19.5824C19.1221 29.5834 18.749 29.2103 18.749 28.7501V24.4416L18.1446 24.629C17.8917 24.7075 17.6166 24.661 17.4035 24.504C17.1903 24.3469 17.0645 24.0979 17.0645 23.8331V22.6856C17.0645 22.3337 17.2855 22.0198 17.6168 21.9011L20.5611 20.8464C20.6513 20.8141 20.7463 20.7976 20.8421 20.7976H20.9935C21.4537 20.7976 21.8268 21.1707 21.8268 21.6309V28.7501ZM19.5824 23.3106V28.7501H20.9935V21.6309H20.8421L17.8978 22.6856V23.8331L19.5824 23.3106Z" fill="#E89B05"/>
</svg>
