<svg width="40" height="40" viewBox="0 0 40 40" fill="none" xmlns="http://www.w3.org/2000/svg">
<g filter="url(#filter0_d_2236_3229)">
<path d="M15.6632 3.73857C15.5126 3.48757 15.2413 3.33398 14.9486 3.33398H6.89223C6.24449 3.33398 5.8444 4.04063 6.17766 4.59606L15.1777 19.5961C15.3283 19.8471 15.5995 20.0007 15.8922 20.0007H23.9486C24.5963 20.0007 24.9964 19.294 24.6632 18.7386L15.6632 3.73857Z" fill="#C52229"/>
<path fill-rule="evenodd" clip-rule="evenodd" d="M14.9479 2.50098H6.8916C5.59611 2.50098 4.79592 3.91426 5.46244 5.02514L14.4624 20.0251C14.7636 20.5271 15.3062 20.8343 15.8916 20.8343H23.9479C25.2434 20.8343 26.0436 19.421 25.3771 18.3102L16.3771 3.31015C16.0759 2.80814 15.5334 2.50098 14.9479 2.50098ZM14.9479 3.33431C15.2407 3.33431 15.5119 3.48789 15.6625 3.7389L24.6625 18.7389C24.9958 19.2943 24.5957 20.001 23.9479 20.001H15.8916C15.5989 20.001 15.3276 19.8474 15.177 19.5964L6.17702 4.59639C5.84376 4.04095 6.24385 3.33431 6.8916 3.33431H14.9479Z" fill="#9B0F15"/>
<path d="M24.3427 3.73857C24.4933 3.48757 24.7646 3.33398 25.0573 3.33398H33.1136C33.7614 3.33398 34.1615 4.04063 33.8282 4.59606L24.8282 19.5961C24.6776 19.8471 24.4063 20.0007 24.1136 20.0007H16.0573C15.4095 20.0007 15.0094 19.294 15.3427 18.7386L24.3427 3.73857Z" fill="#F1333B"/>
<path fill-rule="evenodd" clip-rule="evenodd" d="M25.056 2.50098H33.1123C34.4078 2.50098 35.208 3.91426 34.5415 5.02514L25.5415 20.0251C25.2403 20.5271 24.6977 20.8343 24.1123 20.8343H16.056C14.7605 20.8343 13.9603 19.421 14.6268 18.3102L23.6268 3.31015C23.928 2.80814 24.4705 2.50098 25.056 2.50098ZM25.056 3.33431C24.7632 3.33431 24.492 3.48789 24.3414 3.7389L15.3414 18.7389C15.0081 19.2943 15.4082 20.001 16.056 20.001H24.1123C24.405 20.001 24.6763 19.8474 24.8269 19.5964L33.8269 4.59639C34.1601 4.04095 33.7601 3.33431 33.1123 3.33431H25.056Z" fill="#9B0F15"/>
<path fill-rule="evenodd" clip-rule="evenodd" d="M25.208 3.80665C25.407 3.9222 25.4746 4.1772 25.3591 4.3762L21.6091 10.8345C21.4935 11.0335 21.2385 11.1012 21.0395 10.9856C20.8405 10.8701 20.7729 10.6151 20.8884 10.4161L24.6384 3.95776C24.754 3.75875 25.009 3.6911 25.208 3.80665Z" fill="#FE666D"/>
<path fill-rule="evenodd" clip-rule="evenodd" d="M6.87599 3.80665C6.67699 3.9222 6.60934 4.1772 6.72489 4.3762L10.4749 10.8345C10.5904 11.0335 10.8454 11.1012 11.0444 10.9856C11.2434 10.8701 11.3111 10.6151 11.1955 10.4161L7.44555 3.95776C7.33 3.75875 7.075 3.6911 6.87599 3.80665Z" fill="#DF3840"/>
<path d="M14.7936 4.7006C14.7936 4.99544 14.5604 5.23446 14.2728 5.23446C13.9851 5.23446 13.752 4.99544 13.752 4.7006C13.752 4.40576 13.9851 4.16675 14.2728 4.16675C14.5604 4.16675 14.7936 4.40576 14.7936 4.7006Z" fill="#AA161D"/>
<path d="M12.9637 4.83081C12.9637 5.19756 12.6736 5.49487 12.3158 5.49487C11.958 5.49487 11.668 5.19756 11.668 4.83081C11.668 4.46406 11.958 4.16675 12.3158 4.16675C12.6736 4.16675 12.9637 4.46406 12.9637 4.83081Z" fill="#AA161D"/>
<path d="M14.5848 6.73193C14.5848 7.09869 14.2947 7.396 13.9369 7.396C13.5791 7.396 13.2891 7.09869 13.2891 6.73193C13.2891 6.36518 13.5791 6.06787 13.9369 6.06787C14.2947 6.06787 14.5848 6.36518 14.5848 6.73193Z" fill="#AA161D"/>
<path d="M16.0658 5.8269C16.0658 6.01028 15.9208 6.15894 15.7419 6.15894C15.563 6.15894 15.418 6.01028 15.418 5.8269C15.418 5.64353 15.563 5.49487 15.7419 5.49487C15.9208 5.49487 16.0658 5.64353 16.0658 5.8269Z" fill="#AA161D"/>
<path d="M12.642 6.3999C12.642 6.58328 12.497 6.73193 12.3181 6.73193C12.1392 6.73193 11.9941 6.58328 11.9941 6.3999C11.9941 6.21653 12.1392 6.06787 12.3181 6.06787C12.497 6.06787 12.642 6.21653 12.642 6.3999Z" fill="#AA161D"/>
<path d="M10.8354 4.36865C10.8354 4.55203 10.6903 4.70068 10.5114 4.70068C10.3325 4.70068 10.1875 4.55203 10.1875 4.36865C10.1875 4.18528 10.3325 4.03662 10.5114 4.03662C10.6903 4.03662 10.8354 4.18528 10.8354 4.36865Z" fill="#AA161D"/>
<path d="M15.7416 8.14502C15.7416 8.3284 15.5966 8.47705 15.4177 8.47705C15.2388 8.47705 15.0938 8.3284 15.0938 8.14502C15.0938 7.96164 15.2388 7.81299 15.4177 7.81299C15.5966 7.81299 15.7416 7.96164 15.7416 8.14502Z" fill="#AA161D"/>
<path d="M14.0776 8.47705C14.0776 8.66043 13.9325 8.80908 13.7536 8.80908C13.5747 8.80908 13.4297 8.66043 13.4297 8.47705C13.4297 8.29367 13.5747 8.14502 13.7536 8.14502C13.9325 8.14502 14.0776 8.29367 14.0776 8.47705Z" fill="#AA161D"/>
<path d="M17.3063 7.2723C17.3063 7.57073 17.0703 7.81266 16.7791 7.81266C16.488 7.81266 16.252 7.57073 16.252 7.2723C16.252 6.97386 16.488 6.73193 16.7791 6.73193C17.0703 6.73193 17.3063 6.97386 17.3063 7.2723Z" fill="#AA161D"/>
<path d="M17.9936 8.80908C17.9936 8.99246 17.8485 9.14111 17.6696 9.14111C17.4907 9.14111 17.3457 8.99246 17.3457 8.80908C17.3457 8.62571 17.4907 8.47705 17.6696 8.47705C17.8485 8.47705 17.9936 8.62571 17.9936 8.80908Z" fill="#AA161D"/>
<path d="M31.25 25.4165C31.25 31.6297 26.2132 36.6665 20 36.6665C13.7868 36.6665 8.75 31.6297 8.75 25.4165C8.75 19.2033 13.7868 14.1665 20 14.1665C26.2132 14.1665 31.25 19.2033 31.25 25.4165Z" fill="#BCCCD2"/>
<path fill-rule="evenodd" clip-rule="evenodd" d="M32.0807 25.4168C32.0807 32.0903 26.6708 37.5002 19.9974 37.5002C13.324 37.5002 7.91406 32.0903 7.91406 25.4168C7.91406 18.7434 13.324 13.3335 19.9974 13.3335C26.6708 13.3335 32.0807 18.7434 32.0807 25.4168ZM19.9974 36.6668C26.2106 36.6668 31.2474 31.63 31.2474 25.4168C31.2474 19.2036 26.2106 14.1668 19.9974 14.1668C13.7842 14.1668 8.7474 19.2036 8.7474 25.4168C8.7474 31.63 13.7842 36.6668 19.9974 36.6668Z" fill="#81A5B0"/>
<path fill-rule="evenodd" clip-rule="evenodd" d="M9.58073 25.8335C9.35061 25.8335 9.16406 25.6469 9.16406 25.4168C9.16406 19.4337 14.0143 14.5835 19.9974 14.5835C20.2275 14.5835 20.4141 14.77 20.4141 15.0002C20.4141 15.2303 20.2275 15.4168 19.9974 15.4168C14.4745 15.4168 9.9974 19.894 9.9974 25.4168C9.9974 25.6469 9.81085 25.8335 9.58073 25.8335Z" fill="#D0DEE3"/>
<path fill-rule="evenodd" clip-rule="evenodd" d="M30.4193 24.9995C30.6494 24.9995 30.8359 25.1861 30.8359 25.4162C30.8359 31.3993 25.9857 36.2495 20.0026 36.2495C19.7725 36.2495 19.5859 36.063 19.5859 35.8328C19.5859 35.6027 19.7725 35.4162 20.0026 35.4162C25.5255 35.4162 30.0026 30.939 30.0026 25.4162C30.0026 25.1861 30.1892 24.9995 30.4193 24.9995Z" fill="#A2B9C1"/>
<path d="M28.3307 25.4168C28.3307 30.0192 24.5998 33.7502 19.9974 33.7502C15.395 33.7502 11.6641 30.0192 11.6641 25.4168C11.6641 20.8145 15.395 17.0835 19.9974 17.0835C24.5998 17.0835 28.3307 20.8145 28.3307 25.4168Z" fill="#C7D4D8"/>
<path fill-rule="evenodd" clip-rule="evenodd" d="M29.1693 25.4162C29.1693 30.4788 25.0652 34.5828 20.0026 34.5828C14.94 34.5828 10.8359 30.4788 10.8359 25.4162C10.8359 20.3536 14.94 16.2495 20.0026 16.2495C25.0652 16.2495 29.1693 20.3536 29.1693 25.4162ZM20.0026 33.7495C24.605 33.7495 28.3359 30.0186 28.3359 25.4162C28.3359 20.8138 24.605 17.0828 20.0026 17.0828C15.4002 17.0828 11.6693 20.8138 11.6693 25.4162C11.6693 30.0186 15.4002 33.7495 20.0026 33.7495Z" fill="#81A5B0"/>
<path fill-rule="evenodd" clip-rule="evenodd" d="M19.9974 32.5002C23.9094 32.5002 27.0807 29.3288 27.0807 25.4168C27.0807 25.1867 27.2673 25.0002 27.4974 25.0002C27.7275 25.0002 27.9141 25.1867 27.9141 25.4168C27.9141 29.7891 24.3696 33.3335 19.9974 33.3335C19.7673 33.3335 19.5807 33.1469 19.5807 32.9168C19.5807 32.6867 19.7673 32.5002 19.9974 32.5002Z" fill="#B5C3C8"/>
<path fill-rule="evenodd" clip-rule="evenodd" d="M20.0026 18.3328C16.0906 18.3328 12.9193 21.5042 12.9193 25.4162C12.9193 25.6463 12.7327 25.8328 12.5026 25.8328C12.2725 25.8328 12.0859 25.6463 12.0859 25.4162C12.0859 21.0439 15.6304 17.4995 20.0026 17.4995C20.2327 17.4995 20.4193 17.6861 20.4193 17.9162C20.4193 18.1463 20.2327 18.3328 20.0026 18.3328Z" fill="#D9EAEF"/>
<mask id="path-25-outside-1_2236_3229" maskUnits="userSpaceOnUse" x="16.082" y="19.5825" width="8" height="10" fill="black">
<rect fill="white" x="16.082" y="19.5825" width="8" height="10"/>
<path d="M22.4336 27.4839V28.5825H17.5703V27.645L19.8701 25.1792C20.1012 24.922 20.2835 24.6958 20.417 24.5005C20.5505 24.3019 20.6465 24.1245 20.7051 23.9683C20.7669 23.8088 20.7979 23.6574 20.7979 23.5142C20.7979 23.2993 20.762 23.1154 20.6904 22.9624C20.6188 22.8062 20.513 22.6857 20.373 22.6011C20.2363 22.5164 20.0671 22.4741 19.8652 22.4741C19.6504 22.4741 19.4648 22.5262 19.3086 22.6304C19.1556 22.7345 19.0384 22.8794 18.957 23.0649C18.8789 23.2505 18.8398 23.4604 18.8398 23.6948H17.4287C17.4287 23.2716 17.5296 22.8843 17.7314 22.5327C17.9333 22.1779 18.2181 21.8963 18.5859 21.688C18.9538 21.4764 19.39 21.3706 19.8945 21.3706C20.3926 21.3706 20.8125 21.452 21.1543 21.6147C21.4993 21.7743 21.7598 22.0054 21.9355 22.3081C22.1146 22.6076 22.2041 22.9657 22.2041 23.3823C22.2041 23.6167 22.1667 23.8462 22.0918 24.0708C22.0169 24.2922 21.9095 24.5135 21.7695 24.7349C21.6328 24.953 21.4668 25.1743 21.2715 25.3989C21.0762 25.6235 20.8597 25.8563 20.6221 26.0972L19.3867 27.4839H22.4336Z"/>
</mask>
<path d="M22.4336 27.4839V28.5825H17.5703V27.645L19.8701 25.1792C20.1012 24.922 20.2835 24.6958 20.417 24.5005C20.5505 24.3019 20.6465 24.1245 20.7051 23.9683C20.7669 23.8088 20.7979 23.6574 20.7979 23.5142C20.7979 23.2993 20.762 23.1154 20.6904 22.9624C20.6188 22.8062 20.513 22.6857 20.373 22.6011C20.2363 22.5164 20.0671 22.4741 19.8652 22.4741C19.6504 22.4741 19.4648 22.5262 19.3086 22.6304C19.1556 22.7345 19.0384 22.8794 18.957 23.0649C18.8789 23.2505 18.8398 23.4604 18.8398 23.6948H17.4287C17.4287 23.2716 17.5296 22.8843 17.7314 22.5327C17.9333 22.1779 18.2181 21.8963 18.5859 21.688C18.9538 21.4764 19.39 21.3706 19.8945 21.3706C20.3926 21.3706 20.8125 21.452 21.1543 21.6147C21.4993 21.7743 21.7598 22.0054 21.9355 22.3081C22.1146 22.6076 22.2041 22.9657 22.2041 23.3823C22.2041 23.6167 22.1667 23.8462 22.0918 24.0708C22.0169 24.2922 21.9095 24.5135 21.7695 24.7349C21.6328 24.953 21.4668 25.1743 21.2715 25.3989C21.0762 25.6235 20.8597 25.8563 20.6221 26.0972L19.3867 27.4839H22.4336Z" fill="#D9EAEF"/>
<path d="M22.4336 27.4839H23.2669C23.2669 27.0236 22.8938 26.6506 22.4336 26.6506V27.4839ZM22.4336 28.5825V29.4159C22.8938 29.4159 23.2669 29.0428 23.2669 28.5825H22.4336ZM17.5703 28.5825H16.737C16.737 29.0428 17.1101 29.4159 17.5703 29.4159V28.5825ZM17.5703 27.645L16.9609 27.0766C16.817 27.2309 16.737 27.434 16.737 27.645H17.5703ZM19.8701 25.1792L20.4795 25.7476C20.483 25.7438 20.4865 25.7401 20.4899 25.7362L19.8701 25.1792ZM20.417 24.5005L21.105 24.9707L21.1086 24.9654L20.417 24.5005ZM20.7051 23.9683L19.9281 23.667L19.9248 23.6757L20.7051 23.9683ZM20.6904 22.9624L19.9329 23.3096L19.9357 23.3157L20.6904 22.9624ZM20.373 22.6011L19.9344 23.3097L19.9419 23.3142L20.373 22.6011ZM19.3086 22.6304L18.8463 21.937L18.8396 21.9415L19.3086 22.6304ZM18.957 23.0649L18.1938 22.7302L18.189 22.7416L18.957 23.0649ZM18.8398 23.6948V24.5282C19.3001 24.5282 19.6732 24.1551 19.6732 23.6948H18.8398ZM17.4287 23.6948H16.5954C16.5954 24.1551 16.9685 24.5282 17.4287 24.5282V23.6948ZM17.7314 22.5327L18.4542 22.9476L18.4558 22.9447L17.7314 22.5327ZM18.5859 21.688L18.9966 22.4131L19.0015 22.4103L18.5859 21.688ZM21.1543 21.6147L20.796 22.3672L20.8046 22.3712L21.1543 21.6147ZM21.9355 22.3081L21.2148 22.7266L21.2203 22.7357L21.9355 22.3081ZM22.0918 24.0708L22.8812 24.3378L22.8824 24.3343L22.0918 24.0708ZM21.7695 24.7349L21.0652 24.2895L21.0635 24.2923L21.7695 24.7349ZM20.6221 26.0972L20.0288 25.5119C20.0189 25.522 20.0092 25.5323 19.9998 25.5429L20.6221 26.0972ZM19.3867 27.4839L18.7645 26.9296C18.5461 27.1747 18.492 27.5253 18.6263 27.8249C18.7607 28.1244 19.0584 28.3172 19.3867 28.3172V27.4839ZM21.6003 27.4839V28.5825H23.2669V27.4839H21.6003ZM22.4336 27.7492H17.5703V29.4159H22.4336V27.7492ZM18.4036 28.5825V27.645H16.737V28.5825H18.4036ZM18.1797 28.2134L20.4795 25.7476L19.2607 24.6108L16.9609 27.0766L18.1797 28.2134ZM20.4899 25.7362C20.7355 25.4629 20.9437 25.2068 21.105 24.9706L19.729 24.0303C19.6234 24.1848 19.4669 24.3811 19.2503 24.6222L20.4899 25.7362ZM21.1086 24.9654C21.2641 24.7341 21.3965 24.4977 21.4854 24.2609L19.9248 23.6757C19.8964 23.7513 19.8369 23.8698 19.7254 24.0356L21.1086 24.9654ZM21.482 24.2695C21.5741 24.0322 21.6312 23.7783 21.6312 23.5142H19.9645C19.9645 23.5364 19.9598 23.5853 19.9281 23.667L21.482 24.2695ZM21.6312 23.5142C21.6312 23.2093 21.5806 22.8985 21.4452 22.6091L19.9357 23.3157C19.9435 23.3323 19.9645 23.3893 19.9645 23.5142H21.6312ZM21.448 22.6152C21.3105 22.3152 21.0947 22.0636 20.8042 21.888L19.9419 23.3142C19.9416 23.314 19.94 23.313 19.9377 23.3111C19.9354 23.3092 19.9331 23.307 19.9313 23.3048C19.9294 23.3027 19.9286 23.3015 19.9288 23.3017C19.929 23.302 19.9305 23.3044 19.9329 23.3096L21.448 22.6152ZM20.8117 21.8925C20.5134 21.7079 20.1828 21.6408 19.8652 21.6408V23.3075C19.9084 23.3075 19.9323 23.312 19.9414 23.3143C19.9496 23.3164 19.9452 23.3163 19.9344 23.3096L20.8117 21.8925ZM19.8652 21.6408C19.5103 21.6408 19.1585 21.7289 18.8463 21.937L19.7708 23.3237C19.7712 23.3235 19.7905 23.3075 19.8652 23.3075V21.6408ZM18.8396 21.9415C18.5451 22.142 18.3319 22.4154 18.1939 22.7302L19.7202 23.3997C19.7449 23.3434 19.7661 23.327 19.7776 23.3192L18.8396 21.9415ZM18.189 22.7416C18.0613 23.0449 18.0065 23.3674 18.0065 23.6948H19.6732C19.6732 23.5535 19.6965 23.4561 19.7251 23.3883L18.189 22.7416ZM18.8398 22.8615H17.4287V24.5282H18.8398V22.8615ZM18.262 23.6948C18.262 23.4106 18.3281 23.1673 18.4542 22.9476L17.0087 22.1178C16.7312 22.6013 16.5954 23.1327 16.5954 23.6948H18.262ZM18.4558 22.9447C18.5805 22.7255 18.7548 22.5501 18.9966 22.4131L18.1753 20.9629C17.6814 21.2426 17.286 21.6303 17.0071 22.1207L18.4558 22.9447ZM19.0015 22.4103C19.2209 22.2841 19.5081 22.2039 19.8945 22.2039V20.5373C19.2718 20.5373 18.6867 20.6687 18.1704 20.9656L19.0015 22.4103ZM19.8945 22.2039C20.3061 22.2039 20.5956 22.2717 20.796 22.3671L21.5126 20.8624C21.0294 20.6323 20.4791 20.5373 19.8945 20.5373V22.2039ZM20.8046 22.3712C21.0083 22.4653 21.1326 22.5848 21.2149 22.7266L22.6562 21.8897C22.387 21.426 21.9904 21.0832 21.504 20.8583L20.8046 22.3712ZM21.2203 22.7357C21.3082 22.8828 21.3708 23.0868 21.3708 23.3823H23.0374C23.0374 22.8445 22.9209 22.3323 22.6508 21.8805L21.2203 22.7357ZM21.3708 23.3823C21.3708 23.5262 21.3481 23.6668 21.3012 23.8073L22.8824 24.3343C22.9853 24.0256 23.0374 23.7072 23.0374 23.3823H21.3708ZM21.3024 23.8038C21.2511 23.9555 21.174 24.1174 21.0652 24.2895L22.4739 25.1802C22.645 24.9096 22.7828 24.6288 22.8812 24.3378L21.3024 23.8038ZM21.0635 24.2923C20.953 24.4685 20.8138 24.6552 20.6426 24.8521L21.9003 25.9457C22.1198 25.6934 22.3127 25.4374 22.4756 25.1775L21.0635 24.2923ZM20.6426 24.8521C20.4602 25.0619 20.2558 25.2818 20.0288 25.5119L21.2153 26.6824C21.4636 26.4307 21.6921 26.1852 21.9003 25.9457L20.6426 24.8521ZM19.9998 25.5429L18.7645 26.9296L20.009 28.0382L21.2443 26.6515L19.9998 25.5429ZM19.3867 28.3172H22.4336V26.6506H19.3867V28.3172Z" fill="#81A5B0" mask="url(#path-25-outside-1_2236_3229)"/>
</g>
<defs>
<filter id="filter0_d_2236_3229" x="0" y="0" width="40.8333" height="40.8333" filterUnits="userSpaceOnUse" color-interpolation-filters="sRGB">
<feFlood flood-opacity="0" result="BackgroundImageFix"/>
<feColorMatrix in="SourceAlpha" type="matrix" values="0 0 0 0 0 0 0 0 0 0 0 0 0 0 0 0 0 0 127 0" result="hardAlpha"/>
<feOffset dx="0.833333" dy="0.833333"/>
<feColorMatrix type="matrix" values="0 0 0 0 0.637788 0 0 0 0 0.545996 0 0 0 0 0.47948 0 0 0 0.2 0"/>
<feBlend mode="normal" in2="BackgroundImageFix" result="effect1_dropShadow_2236_3229"/>
<feBlend mode="normal" in="SourceGraphic" in2="effect1_dropShadow_2236_3229" result="shape"/>
</filter>
</defs>
</svg>
