<svg width="14" height="15" viewBox="0 0 14 15" fill="none" xmlns="http://www.w3.org/2000/svg">
<path d="M4.14683 10.4707L5.32083 10.132L12.3895 2.97867C12.4453 2.92153 12.4763 2.84475 12.4759 2.76492C12.4755 2.68509 12.4438 2.60861 12.3875 2.552L11.9642 2.124C11.9368 2.09589 11.9041 2.07351 11.868 2.05817C11.8319 2.04283 11.7931 2.03483 11.7539 2.03465C11.7147 2.03446 11.6758 2.04209 11.6396 2.05709C11.6033 2.07208 11.5705 2.09415 11.5428 2.122L4.49283 9.25667L4.14616 10.47L4.14683 10.4707ZM12.8022 1.276L13.2255 1.70467C13.8095 2.296 13.8148 3.25 13.2362 3.83533L5.95216 11.2073L3.44283 11.93C3.28963 11.9729 3.12567 11.9532 2.98694 11.8754C2.8482 11.7975 2.74603 11.6678 2.70283 11.5147C2.67068 11.4046 2.67022 11.2877 2.7015 11.1773L3.4315 8.61733L10.6962 1.26467C10.8343 1.12557 10.9988 1.01537 11.1799 0.940501C11.3611 0.865628 11.5554 0.827578 11.7514 0.828571C11.9474 0.829564 12.1413 0.86958 12.3217 0.946284C12.5021 1.02299 12.6654 1.13485 12.8022 1.27533V1.276ZM5.12283 2.04467C5.4535 2.04467 5.7215 2.316 5.7215 2.65067C5.72202 2.72978 5.70695 2.80822 5.67714 2.8815C5.64733 2.95478 5.60337 3.02147 5.54777 3.07775C5.49217 3.13404 5.42602 3.17881 5.35311 3.20951C5.28019 3.2402 5.20194 3.25623 5.12283 3.25667H2.72816C2.06683 3.25667 1.53083 3.79933 1.53083 4.468V11.7387C1.53083 12.408 2.06683 12.9507 2.72816 12.9507H9.91216C10.5735 12.9507 11.1102 12.408 11.1102 11.7387V9.31533C11.1102 8.98067 11.3782 8.70933 11.7088 8.70933C12.0395 8.70933 12.3075 8.98067 12.3075 9.316V11.7387C12.3075 13.0773 11.2348 14.1627 9.91216 14.1627H2.72816C1.4055 14.1627 0.333496 13.0773 0.333496 11.7387V4.468C0.333496 3.13 1.4055 2.04467 2.72816 2.04467H5.12283Z" fill="#919191"/>
</svg>
