<svg width="11" height="6" viewBox="0 0 11 6" fill="none" xmlns="http://www.w3.org/2000/svg">
<path d="M0.675983 1.30553C0.675679 1.14977 0.729929 0.998809 0.829316 0.878868C0.885283 0.811362 0.954017 0.755561 1.03158 0.71466C1.10915 0.673759 1.19402 0.648561 1.28133 0.640511C1.36865 0.63246 1.4567 0.641715 1.54044 0.667744C1.62417 0.693774 1.70195 0.736067 1.76932 0.792201L5.34265 3.77887L8.92265 0.898869C8.99084 0.843492 9.06931 0.802137 9.15353 0.777183C9.23776 0.752228 9.32609 0.744166 9.41344 0.753458C9.50079 0.762751 9.58545 0.789216 9.66254 0.831332C9.73963 0.873447 9.80764 0.930384 9.86265 0.998869C9.92334 1.06785 9.96912 1.14862 9.99711 1.23613C10.0251 1.32364 10.0347 1.41599 10.0253 1.50738C10.0159 1.59878 9.98775 1.68725 9.94255 1.76724C9.89735 1.84722 9.8361 1.91701 9.76265 1.9722L5.76265 5.1922C5.64336 5.29026 5.49373 5.34386 5.33932 5.34386C5.1849 5.34386 5.03527 5.29026 4.91598 5.1922L0.915983 1.85887C0.835305 1.79199 0.771529 1.70703 0.72983 1.61089C0.688131 1.51475 0.669682 1.41014 0.675983 1.30553Z" fill="#555555"/>
</svg>
